<svg width="376" height="424" viewBox="0 0 376 424" fill="none" xmlns="http://www.w3.org/2000/svg">
<circle cx="188" cy="360" r="360" fill="white"/>
<path d="M432.072 112.015C432.354 110.242 430.091 106.669 427.618 106.728C426.637 106.75 425.673 107.016 424.694 106.966C422.078 106.833 420.722 104.726 419.716 102.981C418.708 101.237 416.702 99.2439 414.152 99.687C410.482 100.325 408.633 105.336 404.463 101.574C401.733 99.1106 401.527 95.6646 398.435 93.2753C396.313 91.6359 392.862 90.6628 390.015 91.5708C386.3 92.7546 384.921 96.5664 380.967 97.2295C376.588 97.964 373.439 94.5148 372.041 92.0264C370.344 89.008 369.715 85.7448 368.26 82.6737C366.916 79.8289 364.211 76.0202 359.365 76.1039C355.267 76.1752 353.462 78.8589 351.451 80.991C348.835 83.7645 343.399 93.7215 337.302 92.5191C334.925 92.0512 333.737 90.0957 331.594 89.2218C328.146 87.8149 323.749 89.7486 321.671 92.1813C319.594 94.614 318.771 97.5518 316.421 99.8544C315.814 100.449 315.077 101.013 314.122 101.283C310.842 102.213 307.789 99.3554 304.278 99.1416C301.853 98.996 299.606 100.174 298.214 101.611C296.822 103.049 296.062 104.748 294.996 106.325C294.7 106.765 294.361 107.208 293.826 107.506C292.284 108.361 290.117 107.639 288.231 107.304C283.568 106.474 278.273 108.69 276.959 112.021H432.072V112.015Z" fill="#F3F4F6"/>
<path d="M171.622 63.7297C171.389 62.3116 173.263 59.4532 175.311 59.5003C176.124 59.5176 176.922 59.7308 177.733 59.6912C179.9 59.5846 181.023 57.8987 181.856 56.5029C182.692 55.1072 184.353 53.5131 186.465 53.8676C189.504 54.3783 191.036 58.3871 194.49 55.3774C196.751 53.4065 196.922 50.6496 199.483 48.7382C201.241 47.4267 204.099 46.6482 206.457 47.3746C209.533 48.3217 210.676 51.3711 213.951 51.9016C217.578 52.4892 220.187 49.7298 221.344 47.7391C222.75 45.3244 223.271 42.7138 224.475 40.2569C225.589 37.981 227.83 34.9341 231.844 35.0011C235.238 35.0581 236.732 37.2051 238.398 38.9107C240.565 41.1296 245.067 49.0952 250.118 48.1333C252.086 47.7589 253.07 46.1945 254.845 45.4954C257.701 44.3699 261.343 45.9169 263.064 47.863C264.784 49.8092 265.466 52.1594 267.412 54.0015C267.916 54.4775 268.525 54.9287 269.316 55.1444C272.033 55.8881 274.562 53.6023 277.47 53.4313C279.478 53.3147 281.34 54.2568 282.493 55.4072C283.646 56.5575 284.276 57.9161 285.158 59.178C285.404 59.53 285.684 59.8845 286.128 60.1225C287.404 60.8068 289.199 60.2291 290.761 59.9614C294.624 59.297 299.009 61.0696 300.098 63.7347H171.622V63.7297Z" fill="#F3F4F6"/>
<path d="M-16.9843 87.969C-17.1698 86.9057 -15.6852 84.762 -14.0629 84.796C-13.4194 84.8102 -12.7878 84.969 -12.1443 84.9378C-10.4292 84.8584 -9.54018 83.5937 -8.87869 82.5474C-8.21719 81.5011 -6.90318 80.3073 -5.22998 80.571C-2.82345 80.9538 -1.61121 83.9623 1.12458 81.7024C2.91451 80.2251 3.0492 78.1579 5.0756 76.7231C6.46743 75.7392 8.73029 75.1579 10.5951 75.6995C13.0285 76.4084 13.9355 78.6967 16.5276 79.0937C19.398 79.5332 21.4633 77.4661 22.3793 75.9717C23.4927 74.1598 23.9058 72.2033 24.8576 70.3601C25.7406 68.6531 27.5126 66.3705 30.6914 66.4187C33.3793 66.4613 34.5616 68.0719 35.8816 69.3507C37.5967 71.0152 41.1616 76.9869 45.1575 76.2666C46.7169 75.9859 47.4952 74.812 48.902 74.2874C51.1618 73.4424 54.0443 74.605 55.4062 76.0625C56.7681 77.5228 57.3069 79.2837 58.8484 80.6646C59.2465 81.0219 59.7314 81.3593 60.354 81.5209C62.5031 82.0795 64.5055 80.364 66.8073 80.2364C68.3967 80.1485 69.8693 80.8546 70.7822 81.7194C71.6952 82.5814 72.192 83.6022 72.8925 84.5465C73.087 84.8102 73.3085 85.0767 73.6587 85.2554C74.6674 85.7686 76.0892 85.3347 77.3254 85.1334C80.3814 84.6344 83.8535 85.9642 84.7156 87.9633H-16.9843V87.969Z" fill="#F3F4F6"/>
</svg>
