<svg width="40" height="40" viewBox="0 0 40 40" fill="none" xmlns="http://www.w3.org/2000/svg">
<path d="M12.753 15.5771C12.7766 15.3439 12.6877 15.1133 12.5135 14.9564L10.7395 12.8192V12.5H16.2479L20.5056 21.8377L24.2488 12.5H29.5V12.8192L27.9832 14.2735C27.8524 14.3732 27.7876 14.537 27.8147 14.6992V25.3848C27.7876 25.5469 27.8524 25.7108 27.9832 25.8104L29.4645 27.2647V27.584H22.0135V27.2647L23.5481 25.775C23.6989 25.6242 23.6989 25.5799 23.6989 25.3493V16.7122L19.4323 27.5485H18.8557L13.8884 16.7122V23.9748C13.847 24.2802 13.9484 24.5876 14.1634 24.8084L16.1592 27.2293V27.5485H10.5V27.2293L12.4958 24.8084C12.7092 24.5872 12.8047 24.2778 12.753 23.9748V15.5771Z" fill="#2D00F7"/>
<path fill-rule="evenodd" clip-rule="evenodd" d="M20 38.05C29.9687 38.05 38.05 29.9687 38.05 20C38.05 10.0313 29.9687 1.95 20 1.95C10.0313 1.95 1.95 10.0313 1.95 20C1.95 29.9687 10.0313 38.05 20 38.05ZM20 39C30.4934 39 39 30.4934 39 20C39 9.50659 30.4934 1 20 1C9.50659 1 1 9.50659 1 20C1 30.4934 9.50659 39 20 39Z" fill="white"/>
</svg>
