<svg width="40" height="40" viewBox="0 0 40 40" fill="none" xmlns="http://www.w3.org/2000/svg">
<path d="M27.5588 13.327C26.1989 12.7137 24.7412 12.2604 23.2169 12.0026C23.2033 12 23.1892 12.0017 23.1767 12.0074C23.1641 12.0132 23.1536 12.0227 23.1466 12.0346C22.96 12.3626 22.752 12.7901 22.6062 13.1279C20.9895 12.8863 19.3459 12.8863 17.7292 13.1279C17.5669 12.7536 17.3838 12.3886 17.1808 12.0346C17.1739 12.0225 17.1635 12.0128 17.151 12.0068C17.1384 12.0007 17.1243 11.9987 17.1106 12.0008C15.5871 12.2586 14.1295 12.7119 12.7687 13.3261C12.757 13.331 12.747 13.3394 12.7402 13.3501C9.97417 17.4165 9.216 21.3825 9.58842 25.2986C9.58946 25.3082 9.59243 25.3175 9.59717 25.3259C9.60191 25.3343 9.60831 25.3417 9.61598 25.3475C11.2304 26.5229 13.0312 27.4183 14.9427 27.9962C14.9561 28.0003 14.9703 28.0003 14.9836 27.9962C14.997 27.9921 15.0087 27.984 15.0174 27.9731C15.4287 27.423 15.7933 26.8394 16.1071 26.2284C16.1115 26.22 16.114 26.2108 16.1145 26.2014C16.115 26.192 16.1134 26.1826 16.11 26.1738C16.1065 26.1651 16.1012 26.1571 16.0944 26.1506C16.0877 26.1441 16.0795 26.139 16.0707 26.1359C15.4965 25.9197 14.9401 25.6588 14.4068 25.3555C14.3972 25.3501 14.3891 25.3423 14.3833 25.3329C14.3774 25.3236 14.374 25.3129 14.3733 25.3019C14.3726 25.2909 14.3746 25.2799 14.3792 25.2698C14.3838 25.2598 14.3909 25.2511 14.3997 25.2444C14.5117 25.1618 14.6236 25.0755 14.7303 24.9893C14.7399 24.9816 14.7515 24.9766 14.7637 24.9751C14.776 24.9735 14.7884 24.9754 14.7996 24.9804C18.2901 26.5483 22.0703 26.5483 25.5198 24.9804C25.5311 24.9751 25.5437 24.973 25.5561 24.9744C25.5685 24.9758 25.5803 24.9807 25.59 24.9884C25.6967 25.0755 25.8078 25.1618 25.9207 25.2444C25.9296 25.2509 25.9367 25.2595 25.9415 25.2695C25.9462 25.2794 25.9484 25.2904 25.9479 25.3014C25.9474 25.3124 25.9441 25.3231 25.9384 25.3326C25.9328 25.342 25.9248 25.3499 25.9154 25.3555C25.3838 25.6613 24.831 25.9199 24.2506 26.135C24.2417 26.1383 24.2335 26.1434 24.2268 26.15C24.22 26.1566 24.2147 26.1646 24.2112 26.1734C24.2078 26.1823 24.2062 26.1917 24.2067 26.2012C24.2073 26.2107 24.2098 26.2199 24.2141 26.2284C24.5341 26.839 24.9003 27.4203 25.3029 27.9722C25.3113 27.9836 25.323 27.992 25.3363 27.9965C25.3497 28.0009 25.3641 28.0012 25.3776 27.9971C27.2925 27.4208 29.0961 26.525 30.7124 25.3475C30.7203 25.342 30.7269 25.3349 30.7318 25.3266C30.7367 25.3183 30.7398 25.3091 30.7408 25.2995C31.1852 20.7718 29.996 16.8379 27.5864 13.3519C27.5804 13.3405 27.5707 13.3317 27.5588 13.327ZM16.6288 22.9139C15.5783 22.9139 14.7116 21.9637 14.7116 20.7985C14.7116 19.6323 15.5614 18.6831 16.6288 18.6831C17.7043 18.6831 18.5629 19.6403 18.5461 20.7985C18.5461 21.9646 17.6963 22.9139 16.6288 22.9139ZM23.7173 22.9139C22.6658 22.9139 21.8001 21.9637 21.8001 20.7985C21.8001 19.6323 22.6489 18.6831 23.7173 18.6831C24.7928 18.6831 25.6514 19.6403 25.6345 20.7985C25.6345 21.9646 24.7936 22.9139 23.7173 22.9139Z" fill="#2D00F7"/>
<path fill-rule="evenodd" clip-rule="evenodd" d="M20 38.05C29.9687 38.05 38.05 29.9687 38.05 20C38.05 10.0313 29.9687 1.95 20 1.95C10.0313 1.95 1.95 10.0313 1.95 20C1.95 29.9687 10.0313 38.05 20 38.05ZM20 39C30.4934 39 39 30.4934 39 20C39 9.50659 30.4934 1 20 1C9.50659 1 1 9.50659 1 20C1 30.4934 9.50659 39 20 39Z" fill="white"/>
</svg>
