<svg width="24" height="24" viewBox="0 0 24 24" fill="none" xmlns="http://www.w3.org/2000/svg">
<path d="M15.0335 3.67037C11.8136 1.19042 7.22369 1.50041 4.35375 4.41036C1.43381 7.3603 1.20381 12.0202 3.81376 15.2501C6.5137 18.5801 11.3636 19.2201 14.8735 16.7001L15.0535 16.5701L20.4834 22L21.9534 20.53L16.5235 15.1001L16.6535 14.9201C19.2534 11.3102 18.5435 6.37032 15.0335 3.67037ZM10.1336 16.1801H10.1036C8.50366 16.1801 6.98369 15.5601 5.84372 14.4202C4.69374 13.2802 4.05375 11.7602 4.05375 10.1502C4.05375 8.53027 4.67374 7.0103 5.81372 5.86033C6.9537 4.71035 8.47367 4.07036 10.0936 4.07036H10.1136C11.7236 4.07036 13.2336 4.70035 14.3835 5.84033C15.5335 6.9803 16.1635 8.50027 16.1735 10.1202C16.1735 13.4502 13.4736 16.1701 10.1436 16.1901L10.1336 16.1801Z" fill="#2D00F7"/>
</svg>
