<svg width="24" height="24" viewBox="0 0 24 24" fill="none" xmlns="http://www.w3.org/2000/svg">
<path d="M9.42801 12.0481C9.42801 12.6165 9.83547 13.0793 10.3335 13.0793C10.839 13.0793 11.2289 12.614 11.2389 12.0481C11.2465 11.4797 10.839 11.0169 10.3335 11.0169C9.82793 11.0169 9.42801 11.4797 9.42801 12.0481Z" fill="#2D00F7"/>
<path d="M12.7732 12.0481C12.7732 12.6165 13.1807 13.0793 13.6787 13.0793C14.1842 13.0793 14.5766 12.614 14.5841 12.0481C14.5917 11.4797 14.1842 11.0169 13.6787 11.0169C13.1731 11.0169 12.7732 11.4797 12.7732 12.0481Z" fill="#2D00F7"/>
<path fill-rule="evenodd" clip-rule="evenodd" d="M3 12C3 7.03 7.03 3 12 3C16.97 3 21 7.03 21 12C21 16.97 16.97 21 12 21C7.03 21 3 16.97 3 12ZM13.4297 7.76474C14.1465 7.88798 14.8432 8.10932 15.5022 8.41617V8.41366C16.6818 10.119 17.215 12.189 17.0063 14.2514C16.2391 14.8324 15.3764 15.2751 14.4559 15.5593C14.2471 15.2776 14.061 14.9758 13.9025 14.6614C14.2018 14.5482 14.4886 14.4099 14.7627 14.2464C14.6923 14.1936 14.6219 14.1382 14.554 14.0804C13.7592 14.4627 12.8889 14.6614 12.0061 14.6614C11.1232 14.6614 10.253 14.4627 9.45819 14.0804C9.44709 14.0895 9.43612 14.0985 9.42522 14.1075C9.36697 14.1556 9.31088 14.2019 9.24943 14.2464C9.52359 14.4099 9.81284 14.5482 10.1096 14.6614C9.95117 14.9733 9.77008 15.2751 9.56383 15.5593C8.64327 15.2751 7.78056 14.8349 7.01343 14.2539C6.83485 12.3474 7.19201 10.4132 8.51248 8.41869C9.17146 8.10932 9.8732 7.88798 10.5925 7.76474C10.6831 7.92822 10.7887 8.14453 10.8617 8.31808C11.6263 8.19987 12.4035 8.19987 13.1656 8.31808C13.236 8.14202 13.3416 7.92571 13.4297 7.76474Z" fill="#2D00F7"/>
</svg>
