<svg width="24" height="24" viewBox="0 0 24 24" fill="none" xmlns="http://www.w3.org/2000/svg">
<path d="M22.4787 7.16167C22.1584 4.72541 19.8507 3.06072 17.4636 3.58912C15.8971 3.93749 14.8169 4.90311 14.3235 6.44388C13.8349 7.97765 14.2043 9.35477 15.2611 10.5519C15.3312 10.6313 15.3406 10.6851 15.2915 10.7786C15.1021 11.1457 14.9221 11.5175 14.728 11.9079H14.88C16.014 11.9079 17.1456 11.9079 18.2795 11.9079C18.4268 11.9079 18.5765 11.9009 18.7238 11.8869C21.0735 11.6671 22.785 9.51142 22.4787 7.16167V7.16167ZM18.7378 10.2152H17.9195V9.38984H18.7378V10.2152ZM19.175 8.30498C18.9202 8.45228 18.7682 8.65101 18.7448 8.95262H17.9171C17.9055 8.73752 17.9546 8.53645 18.0364 8.34239C18.1767 8.01272 18.4128 7.77424 18.7238 7.59655C19.0979 7.38145 19.2522 6.9793 19.1236 6.59352C19.0043 6.23346 18.6677 6.00199 18.2912 6.01836C17.9218 6.03473 17.6015 6.3036 17.5197 6.67301C17.508 6.72679 17.501 6.7829 17.4869 6.85304H16.6639C16.6546 6.56313 16.7317 6.29893 16.865 6.05109C17.197 5.43852 17.8961 5.08547 18.5601 5.19069C19.2826 5.30759 19.8414 5.83599 19.9746 6.53273C20.1079 7.23649 19.7969 7.94492 19.1797 8.30264L19.175 8.30498Z" fill="#2D00F7"/>
<path d="M14.88 12.8431H13.5823C13.407 12.8431 13.2971 12.6982 13.3813 12.5158L13.8886 11.4917L14.0453 11.1761C14.1107 11.0405 14.1762 10.9096 14.2417 10.781C13.6665 10.0164 13.3228 9.19578 13.2153 8.33771C11.9083 7.16868 10.1501 6.49064 8.23286 6.60053C4.80059 6.79927 2.00427 9.58156 1.78683 13.0115C1.53432 17.0072 4.70005 20.3249 8.63968 20.3249C12.5793 20.3249 15.5066 17.2504 15.5066 13.4581C15.5066 13.25 15.4949 13.0466 15.4785 12.8431H14.88V12.8431ZM3.32761 12.6164C3.20369 12.0622 3.20603 11.8331 3.21071 11.3725C3.23409 11.1294 3.38606 10.8745 3.50998 10.7973C3.65026 10.7179 3.64793 10.8651 3.64559 11.0709C4.35869 9.64936 5.60488 8.65802 7.06383 8.35174C7.4309 8.2816 7.80967 8.26289 8.19077 8.29329C9.39019 8.39382 10.613 8.9947 11.3869 9.86212C11.581 10.0796 11.7984 10.3251 11.6745 10.5051C11.5038 10.7529 11.1601 10.6126 11.0081 10.4092C10.108 9.21448 8.59759 8.58087 7.15969 8.79129C6.71546 8.85676 6.03508 9.05082 5.31028 9.61195C4.84501 9.97201 4.53872 10.4724 4.18568 10.9283C4.181 10.933 4.12723 11.0101 4.0337 11.1784L4.05942 11.1551L4.12489 11.1036C4.14593 11.0873 4.20438 11.0428 4.27452 11.0382C4.48261 11.0195 4.54106 11.3281 4.37974 11.5993C4.36337 11.625 4.32129 11.6905 4.25348 11.7443C3.79055 12.1183 3.59649 12.3288 3.32761 12.6187V12.6164ZM8.54616 12.8361C7.91488 12.3615 8.07153 11.3187 8.9974 11.1714C9.53048 11.113 10.0168 11.4871 10.0823 12.0061C10.1851 12.8268 9.22185 13.3482 8.54616 12.8385V12.8361ZM5.1887 13.6451C4.56678 13.3037 4.6112 12.1417 5.43186 11.8565C5.85038 11.7372 6.25252 11.9968 6.36942 12.4644C6.56816 13.2546 5.82933 13.9958 5.1887 13.6451V13.6451ZM12.2847 14.8515C12.2333 14.9264 11.8194 15.2934 11.7142 14.6131C11.3822 15.1251 9.60062 17.6432 6.9025 17.0937C4.93853 16.6939 3.39074 15.1204 3.97525 14.7276C4.01266 14.7089 4.14827 14.6645 4.30024 14.8656C5.3664 16.2941 7.0007 16.577 7.80032 16.5162C9.81572 16.3666 11.0198 14.3839 11.0689 14.2974C11.0736 14.2881 11.0806 14.2787 11.0853 14.2717C11.097 14.253 11.1133 14.2249 11.1274 14.2016L10.9777 14.2553C10.8772 14.2904 10.7813 14.2857 10.6925 14.2413C10.454 14.1244 10.3815 13.7667 10.634 13.5492C10.6644 13.5235 10.7159 13.4791 12.0977 13.0232C12.2777 13.6778 12.3104 13.9584 12.3782 14.5219C12.3782 14.5686 12.3852 14.7113 12.287 14.8539L12.2847 14.8515Z" fill="#2D00F7"/>
<path d="M3.32771 12.6163C3.20379 12.0622 3.20613 11.8331 3.2108 11.3725C3.23419 11.1293 3.38616 10.8745 3.51008 10.7973C3.65036 10.7178 3.64802 10.8651 3.64568 11.0709C4.35879 9.64934 5.60498 8.65801 7.06392 8.35172C7.431 8.28158 7.80977 8.26288 8.19087 8.29327C9.39029 8.39381 10.6131 8.99469 11.387 9.86211C11.5811 10.0795 11.8008 10.325 11.6746 10.5051C11.5039 10.7529 11.1602 10.6126 11.0082 10.4092C10.1081 9.21447 8.59769 8.58085 7.15979 8.79128C6.71555 8.85674 6.03518 9.0508 5.31038 9.61194C4.84511 9.972 4.53882 10.4723 4.18344 10.9283C4.17876 10.9329 4.12499 11.0101 4.03146 11.1784L4.05952 11.1551L4.12499 11.1036C4.14603 11.0872 4.20448 11.0428 4.27462 11.0382C4.48271 11.0194 4.54116 11.3281 4.37983 11.5993C4.36347 11.625 4.32138 11.6905 4.25358 11.7442C3.79064 12.1183 3.59658 12.3288 3.32771 12.6187V12.6163ZM8.54625 12.8361C7.91498 12.3615 8.07163 11.3187 8.9975 11.1714C9.53058 11.113 10.0169 11.4871 10.0824 12.0061C10.1852 12.8268 9.22195 13.3482 8.54625 12.8385V12.8361ZM5.1888 13.6451C4.56688 13.3037 4.6113 12.1417 5.42962 11.8565C5.84813 11.7372 6.25028 11.9968 6.36718 12.4644C6.56592 13.2546 5.82709 13.9958 5.18646 13.6451H5.1888ZM12.2848 14.8515C12.2334 14.9263 11.8195 15.2934 11.7143 14.613C11.3823 15.1251 9.60072 17.6432 6.9026 17.0937C4.93863 16.6939 3.39084 15.1204 3.97535 14.7276C4.01276 14.7089 4.14837 14.6645 4.298 14.8656C5.36416 16.2941 6.99846 16.577 7.79808 16.5162C9.81348 16.3666 11.0176 14.3839 11.0667 14.2974C11.0714 14.2881 11.0784 14.2787 11.083 14.2717C11.0947 14.253 11.1111 14.2249 11.1251 14.2015L10.9755 14.2553C10.875 14.2904 10.7791 14.2857 10.6903 14.2413C10.4518 14.1244 10.3793 13.7667 10.6318 13.5492C10.6622 13.5235 10.7136 13.4791 12.0954 13.0232C12.2755 13.6778 12.3082 13.9584 12.376 14.5219C12.376 14.5686 12.383 14.7112 12.2848 14.8539V14.8515Z" fill="white"/>
</svg>
