<svg width="154" height="174" viewBox="0 0 154 174" fill="none" xmlns="http://www.w3.org/2000/svg">
<g clip-path="url(#clip0_768_21707)">
<path d="M131.5 1C143.08 1 152.5 10.42 152.5 22C152.5 33.58 143.08 43 131.5 43V43.94L130.78 43.76C129.1 50.38 111.8 63.99 105.35 67.71C110.47 60.47 101.4 48.35 97.16 43.36L96.86 43.01H22.5C10.92 43 1.5 33.58 1.5 22C1.5 10.42 10.92 1 22.5 1H131.5ZM131.5 0H22.5C10.35 0 0.5 9.85 0.5 22C0.5 34.15 10.35 44 22.5 44H96.4C102.61 51.3 109.12 61.89 104.09 67.7C102.91 69.06 102.71 69.66 103.23 69.66C106.03 69.66 129.66 52.27 131.75 44H131.5C143.65 44 153.5 34.15 153.5 22C153.5 9.85 143.65 0 131.5 0Z" fill="#2D00F7"/>
<path d="M25.7703 27.9801V24.5101C24.9903 24.3401 24.3003 24.0401 23.7003 23.5901C23.1103 23.1501 22.6503 22.5801 22.3103 21.8801C21.9903 21.1701 21.8203 20.3601 21.8203 19.4501V15.3801H24.3903V19.6101C24.3903 20.1101 24.5003 20.5801 24.7103 21.0001C24.9303 21.4101 25.2303 21.7401 25.6303 21.9901C26.0403 22.2401 26.5103 22.3701 27.0503 22.3701C27.5903 22.3701 28.0803 22.2401 28.4703 21.9901C28.8703 21.7401 29.1703 21.4101 29.3903 21.0001C29.6103 20.5801 29.7103 20.1201 29.7103 19.6101V15.3801H32.2803V19.4501C32.2803 20.3601 32.1103 21.1701 31.7803 21.8801C31.4603 22.5801 30.9903 23.1501 30.3903 23.6101C29.8003 24.0501 29.1103 24.3501 28.3203 24.5101V27.9801H25.7503H25.7703ZM39.0503 28.2001C38.1003 28.2001 37.2603 27.9901 36.5103 27.5701C35.7703 27.1401 35.1803 26.5601 34.7503 25.8401C34.3203 25.1101 34.1003 24.2901 34.1003 23.3901C34.1003 22.4901 34.3203 21.6801 34.7503 20.9601C35.1803 20.2301 35.7703 19.6501 36.5103 19.2301C37.2503 18.8001 38.1003 18.5801 39.0503 18.5801C40.0003 18.5801 40.8403 18.8001 41.5903 19.2301C42.3303 19.6501 42.9203 20.2301 43.3503 20.9601C43.7803 21.6801 44.0003 22.4901 44.0003 23.3901C44.0003 24.2901 43.7803 25.1101 43.3503 25.8401C42.9203 26.5601 42.3303 27.1401 41.5903 27.5701C40.8503 27.9901 40.0003 28.2001 39.0503 28.2001ZM39.0503 26.0901C39.5503 26.0901 39.9903 25.9701 40.3503 25.7301C40.7203 25.4901 41.0003 25.1701 41.2003 24.7601C41.4003 24.3501 41.5103 23.9001 41.5103 23.3901C41.5103 22.8801 41.4103 22.4301 41.2003 22.0201C41.0103 21.6101 40.7303 21.2901 40.3503 21.0501C39.9903 20.8101 39.5603 20.6901 39.0503 20.6901C38.5403 20.6901 38.1103 20.8101 37.7403 21.0501C37.3803 21.2901 37.1003 21.6101 36.8903 22.0201C36.7003 22.4301 36.6003 22.8801 36.6003 23.3901C36.6003 23.9001 36.7003 24.3501 36.8903 24.7601C37.0903 25.1701 37.3803 25.4901 37.7403 25.7301C38.1103 25.9701 38.5503 26.0901 39.0503 26.0901ZM50.2803 28.2001C49.3403 28.2001 48.5403 28.0101 47.8703 27.6401C47.2003 27.2701 46.6803 26.7701 46.3203 26.1501C45.9703 25.5301 45.8003 24.8401 45.8003 24.0801V18.8101H48.2703V24.0801C48.2703 24.4501 48.3603 24.7901 48.5403 25.1101C48.7203 25.4101 48.9603 25.6501 49.2603 25.8301C49.5703 26.0101 49.9103 26.1001 50.2903 26.1001C50.6703 26.1001 51.0003 26.0101 51.3003 25.8301C51.6103 25.6501 51.8603 25.4101 52.0403 25.1101C52.2203 24.8001 52.3103 24.4601 52.3103 24.0801V18.8101H54.7803V24.0801C54.7803 24.8401 54.6003 25.5301 54.2403 26.1501C53.8903 26.7701 53.3803 27.2701 52.7103 27.6401C52.0503 28.0101 51.2503 28.2001 50.3003 28.2001H50.2803ZM61.8603 27.9801V22.5301C61.8603 21.8101 62.0303 21.1501 62.3803 20.5501C62.7303 19.9501 63.2303 19.4801 63.8703 19.1301C64.5303 18.7701 65.3203 18.5901 66.2503 18.5901C66.6903 18.5901 67.1003 18.6401 67.4703 18.7501C67.8503 18.8501 68.2103 18.9901 68.5303 19.1801C68.8503 19.3701 69.1403 19.6001 69.3803 19.8601H69.4003C69.6503 19.6001 69.9403 19.3701 70.2603 19.1801C70.5803 18.9901 70.9403 18.8401 71.3203 18.7501C71.7003 18.6401 72.1203 18.5901 72.5603 18.5901C73.4803 18.5901 74.2703 18.7701 74.9203 19.1301C75.5803 19.4801 76.0803 19.9501 76.4303 20.5501C76.7803 21.1501 76.9503 21.8101 76.9503 22.5301V27.9801H74.4803V22.5301C74.4803 22.1901 74.3903 21.8901 74.2103 21.6101C74.0403 21.3301 73.8103 21.1101 73.5303 20.9401C73.2503 20.7701 72.9203 20.6901 72.5603 20.6901C72.2003 20.6901 71.8903 20.7701 71.5903 20.9401C71.3003 21.1101 71.0703 21.3301 70.8903 21.6101C70.7203 21.8901 70.6403 22.1901 70.6403 22.5301V27.9801H68.1703V22.5301C68.1703 22.1901 68.0803 21.8901 67.9003 21.6101C67.7303 21.3301 67.5003 21.1101 67.2203 20.9401C66.9303 20.7701 66.6103 20.6901 66.2503 20.6901C65.8903 20.6901 65.5803 20.7701 65.2803 20.9401C64.9903 21.1101 64.7603 21.3301 64.5803 21.6101C64.4103 21.8901 64.3303 22.1901 64.3303 22.5301V27.9801H61.8603ZM82.9203 28.2001C82.0803 28.2001 81.3503 27.9801 80.7203 27.5501C80.1003 27.1201 79.6103 26.5401 79.2603 25.8201C78.9203 25.0901 78.7603 24.2801 78.7603 23.4101C78.7603 22.5401 78.9503 21.6901 79.3403 20.9601C79.7403 20.2301 80.3003 19.6501 81.0303 19.2301C81.7603 18.8001 82.6403 18.5801 83.6603 18.5801C84.6803 18.5801 85.5603 18.8001 86.2703 19.2301C86.9803 19.6601 87.5203 20.2401 87.8903 20.9801C88.2603 21.7101 88.4503 22.5201 88.4503 23.4101V27.9801H85.9803V26.4501H85.9403C85.7603 26.7701 85.5303 27.0701 85.2603 27.3301C85.0003 27.5901 84.6703 27.8001 84.2903 27.9601C83.9103 28.1201 83.4503 28.1901 82.9203 28.1901V28.2001ZM83.6203 26.0901C84.1003 26.0901 84.5103 25.9701 84.8603 25.7301C85.2103 25.4901 85.4703 25.1701 85.6503 24.7601C85.8403 24.3401 85.9403 23.8801 85.9403 23.3701C85.9403 22.8601 85.8403 22.4201 85.6503 22.0201C85.4703 21.6101 85.2103 21.2901 84.8603 21.0501C84.5103 20.8101 84.1003 20.6901 83.6203 20.6901C83.1403 20.6901 82.7003 20.8101 82.3403 21.0501C81.9903 21.2901 81.7203 21.6101 81.5303 22.0201C81.3503 22.4201 81.2603 22.8701 81.2603 23.3701C81.2603 23.8701 81.3503 24.3401 81.5303 24.7601C81.7203 25.1701 81.9903 25.4901 82.3403 25.7301C82.7003 25.9701 83.1303 26.0901 83.6203 26.0901ZM95.0803 28.2001C94.3103 28.2001 93.6203 28.0801 93.0103 27.8401C92.4103 27.5901 91.9103 27.2401 91.5003 26.8001C91.0903 26.3401 90.7803 25.8201 90.5603 25.2201C90.3403 24.6101 90.2403 23.9401 90.2403 23.2201C90.2403 22.3101 90.4203 21.5101 90.7803 20.8301C91.1503 20.1301 91.6703 19.5901 92.3303 19.1901C93.0003 18.7901 93.7803 18.6001 94.6703 18.6001C95.0503 18.6001 95.4203 18.6501 95.7703 18.7601C96.1303 18.8701 96.4503 19.0201 96.7403 19.2301C97.0303 19.4301 97.2603 19.6701 97.4403 19.9501H97.4603V14.8601H99.9303V23.2301C99.9303 24.2401 99.7303 25.1201 99.3403 25.8801C98.9403 26.6201 98.3903 27.2001 97.6703 27.6101C96.9503 28.0201 96.0903 28.2201 95.1003 28.2201L95.0803 28.2001ZM95.0803 26.0901C95.5703 26.0901 95.9903 25.9701 96.3403 25.7301C96.6903 25.4901 96.9503 25.1701 97.1303 24.7601C97.3203 24.3501 97.4203 23.9001 97.4203 23.3901C97.4203 22.8801 97.3203 22.4301 97.1303 22.0201C96.9503 21.6101 96.6903 21.2901 96.3403 21.0501C95.9903 20.8101 95.5703 20.6901 95.0803 20.6901C94.5903 20.6901 94.1803 20.8101 93.8203 21.0501C93.4703 21.2901 93.2003 21.6101 93.0103 22.0201C92.8303 22.4301 92.7403 22.8801 92.7403 23.3901C92.7403 23.9001 92.8303 24.3501 93.0103 24.7601C93.2003 25.1701 93.4703 25.4901 93.8203 25.7301C94.1803 25.9701 94.6003 26.0901 95.0803 26.0901ZM106.79 27.9801C105.75 27.9801 104.83 27.7801 104.05 27.3901C103.28 26.9801 102.68 26.4301 102.25 25.7301C101.83 25.0301 101.62 24.2501 101.62 23.3901C101.62 22.4201 101.82 21.5701 102.21 20.8501C102.6 20.1301 103.15 19.5701 103.83 19.1801C104.51 18.7801 105.29 18.5901 106.15 18.5901C107.18 18.5901 108.02 18.8101 108.65 19.2401C109.3 19.6701 109.77 20.2501 110.07 20.9901C110.37 21.7101 110.52 22.5101 110.52 23.4001C110.52 23.5201 110.52 23.6601 110.5 23.8301C110.49 23.9901 110.47 24.1101 110.45 24.1901H104.24C104.34 24.5601 104.5 24.8701 104.73 25.1301C104.97 25.3801 105.26 25.5701 105.61 25.7101C105.97 25.8301 106.37 25.8901 106.82 25.8901H109.38V28.0001H106.79V27.9801ZM104.23 22.5301H108.06C108.04 22.3001 107.99 22.0901 107.93 21.9001C107.87 21.7001 107.79 21.5201 107.68 21.3601C107.57 21.2001 107.45 21.0701 107.3 20.9601C107.16 20.8501 106.99 20.7701 106.8 20.7101C106.61 20.6501 106.4 20.6201 106.17 20.6201C105.87 20.6201 105.6 20.6701 105.36 20.7801C105.13 20.8901 104.94 21.0301 104.78 21.2101C104.62 21.3901 104.5 21.5901 104.4 21.8201C104.32 22.0501 104.26 22.2801 104.22 22.5201L104.23 22.5301ZM117.03 27.9801V18.8001H119.51V27.9801H117.03ZM118.27 17.7001C117.85 17.7001 117.48 17.5501 117.17 17.2501C116.87 16.9401 116.72 16.5701 116.72 16.1501C116.72 15.7301 116.87 15.3701 117.17 15.0701C117.48 14.7601 117.85 14.6001 118.27 14.6001C118.69 14.6001 119.05 14.7601 119.35 15.0701C119.66 15.3701 119.82 15.7301 119.82 16.1501C119.82 16.5701 119.66 16.9401 119.35 17.2501C119.05 17.5501 118.69 17.7001 118.27 17.7001ZM125.01 27.9801C124.19 27.9801 123.55 27.7501 123.08 27.2801C122.62 26.8101 122.4 26.1801 122.4 25.3701V16.5001H124.87V25.3001C124.87 25.4601 124.92 25.5901 125.03 25.7101C125.15 25.8201 125.29 25.8701 125.44 25.8701H127.44V27.9801H125.01ZM120.83 20.9101V18.8001H127.44V20.9101H120.83ZM129.51 23.6301V15.3801H131.98V23.6201H129.51V23.6301ZM130.73 28.2001C130.27 28.2001 129.88 28.0401 129.54 27.7101C129.22 27.3701 129.05 26.9801 129.05 26.5201C129.05 26.0601 129.21 25.6701 129.54 25.3501C129.88 25.0101 130.27 24.8501 130.73 24.8501C131.19 24.8501 131.58 25.0201 131.9 25.3501C132.24 25.6701 132.4 26.0601 132.4 26.5201C132.4 26.8201 132.32 27.1001 132.17 27.3701C132.03 27.6201 131.83 27.8301 131.58 27.9801C131.33 28.1201 131.05 28.2001 130.73 28.2001Z" fill="#2D00F7"/>
</g>
<g clip-path="url(#clip1_768_21707)">
<path d="M77 73.6602C50.4912 73.6602 29 95.1514 29 121.66C29 148.169 50.4912 169.66 77 169.66C103.509 169.66 125 148.169 125 121.66C125 95.1514 103.509 73.6602 77 73.6602Z" fill="#DBFF00"/>
<path d="M39.8642 115.782C38.997 111.913 39.0162 110.3 39.0514 107.084C39.2082 105.392 40.2834 103.606 41.1506 103.062C42.133 102.512 42.1202 103.542 42.0978 104.969C47.0834 95.0331 55.7938 88.1051 65.9922 85.9611C68.549 85.4715 71.1986 85.3339 73.8642 85.5611C82.2418 86.2683 90.7986 90.4699 96.2002 96.5275C97.5506 98.0443 99.0834 99.7627 98.2162 101.017C97.0194 102.745 94.6162 101.763 93.5506 100.352C87.253 92.0091 76.6962 87.5739 66.6546 89.0491C63.5538 89.5067 58.7922 90.8699 53.7234 94.7867C50.469 97.3019 48.3378 100.793 45.8546 103.98C45.829 104.019 45.4418 104.553 44.7922 105.721C44.8562 105.667 44.9202 105.612 44.981 105.561L45.4386 105.196C45.589 105.081 45.9922 104.777 46.485 104.732C47.9474 104.598 48.3506 106.761 47.2178 108.649C47.109 108.828 46.8082 109.289 46.3378 109.67C43.0994 112.284 41.7426 113.75 39.8642 115.779V115.782ZM76.3378 117.321C71.9218 113.996 73.013 106.716 79.493 105.68C83.221 105.27 86.6258 107.884 87.0802 111.513C87.8002 117.248 81.0738 120.886 76.3378 117.324V117.321ZM52.8626 122.972C48.5106 120.592 48.821 112.47 54.5522 110.473C57.4738 109.635 60.293 111.459 61.1122 114.72C62.4978 120.249 57.333 125.417 52.8626 122.972ZM102.453 131.404C102.088 131.923 99.1955 134.489 98.4723 129.737H98.469C96.1554 133.318 83.6978 150.915 64.8402 147.075C51.1122 144.278 40.3026 133.289 44.3858 130.531C44.6514 130.4 45.6018 130.086 46.6482 131.491C54.1042 141.481 65.5282 143.446 71.1058 143.033C85.1955 141.99 93.605 128.124 93.957 127.532C93.9954 127.465 94.0306 127.408 94.0658 127.353C94.1458 127.216 94.2578 127.03 94.3634 126.857H94.357L93.3075 127.238C92.6067 127.478 91.9346 127.443 91.3138 127.136C89.6434 126.313 89.1442 123.817 90.8978 122.294C91.109 122.108 91.4642 121.801 101.125 118.614C102.383 123.184 102.616 125.158 103.087 129.091C103.099 129.42 103.144 130.419 102.45 131.404H102.453Z" fill="#2D00F7"/>
</g>
<defs>
<clipPath id="clip0_768_21707">
<rect width="153" height="69.66" fill="white" transform="translate(0.5)"/>
</clipPath>
<clipPath id="clip1_768_21707">
<rect width="96" height="96" fill="white" transform="translate(29 73.6602)"/>
</clipPath>
</defs>
</svg>
