<svg width="40" height="40" viewBox="0 0 40 40" fill="none" xmlns="http://www.w3.org/2000/svg">
<path d="M37.6666 2.14288L22.6562 13.2495L25.4476 6.70401L37.6666 2.14288Z" fill="#E17726" stroke="#E17726" stroke-width="0.25" stroke-linecap="round" stroke-linejoin="round"/>
<path d="M3.04321 2.14288L17.92 13.3532L15.2624 6.704L3.04321 2.14288Z" fill="#E27625" stroke="#E27625" stroke-width="0.25" stroke-linecap="round" stroke-linejoin="round"/>
<path d="M32.2619 27.8953L28.2681 33.9966L36.82 36.3512L39.2698 28.0287L32.2619 27.8953Z" fill="#E27625" stroke="#E27625" stroke-width="0.25" stroke-linecap="round" stroke-linejoin="round"/>
<path d="M1.45447 28.0287L3.88937 36.3512L12.4265 33.9966L8.44742 27.8953L1.45447 28.0287Z" fill="#E27625" stroke="#E27625" stroke-width="0.25" stroke-linecap="round" stroke-linejoin="round"/>
<path d="M11.9662 17.5885L9.5907 21.1722L18.0535 21.5573L17.7714 12.4498L11.9662 17.5885Z" fill="#E27625" stroke="#E27625" stroke-width="0.25" stroke-linecap="round" stroke-linejoin="round"/>
<path d="M28.7432 17.5886L22.849 12.3463L22.656 21.5574L31.1187 21.1723L28.7432 17.5886Z" fill="#E27625" stroke="#E27625" stroke-width="0.25" stroke-linecap="round" stroke-linejoin="round"/>
<path d="M12.4266 33.9966L17.5488 31.5235L13.1393 28.0879L12.4266 33.9966Z" fill="#E27625" stroke="#E27625" stroke-width="0.25" stroke-linecap="round" stroke-linejoin="round"/>
<path d="M23.161 31.5235L28.2683 33.9966L27.5705 28.0879L23.161 31.5235Z" fill="#E27625" stroke="#E27625" stroke-width="0.25" stroke-linecap="round" stroke-linejoin="round"/>
<path d="M28.2683 33.9968L23.161 31.5237L23.5767 34.8409L23.5321 36.2477L28.2683 33.9968Z" fill="#D5BFB2" stroke="#D5BFB2" stroke-width="0.25" stroke-linecap="round" stroke-linejoin="round"/>
<path d="M12.4266 33.9968L17.1777 36.2477L17.148 34.8409L17.5488 31.5237L12.4266 33.9968Z" fill="#D5BFB2" stroke="#D5BFB2" stroke-width="0.25" stroke-linecap="round" stroke-linejoin="round"/>
<path d="M17.2667 25.8962L13.0204 24.6523L16.0195 23.2751L17.2667 25.8962Z" fill="#233447" stroke="#233447" stroke-width="0.25" stroke-linecap="round" stroke-linejoin="round"/>
<path d="M23.4431 25.8962L24.6903 23.2751L27.7043 24.6523L23.4431 25.8962Z" fill="#233447" stroke="#233447" stroke-width="0.25" stroke-linecap="round" stroke-linejoin="round"/>
<path d="M12.4265 33.9966L13.1689 27.8953L8.44751 28.0287L12.4265 33.9966Z" fill="#CC6228" stroke="#CC6228" stroke-width="0.25" stroke-linecap="round" stroke-linejoin="round"/>
<path d="M27.5406 27.8953L28.2682 33.9966L32.262 28.0287L27.5406 27.8953Z" fill="#CC6228" stroke="#CC6228" stroke-width="0.25" stroke-linecap="round" stroke-linejoin="round"/>
<path d="M31.1187 21.1721L22.656 21.5571L23.4429 25.8962L24.6901 23.275L27.704 24.6522L31.1187 21.1721Z" fill="#CC6228" stroke="#CC6228" stroke-width="0.25" stroke-linecap="round" stroke-linejoin="round"/>
<path d="M13.0204 24.6522L16.0194 23.275L17.2666 25.8962L18.0535 21.5571L9.5907 21.1721L13.0204 24.6522Z" fill="#CC6228" stroke="#CC6228" stroke-width="0.25" stroke-linecap="round" stroke-linejoin="round"/>
<path d="M9.59094 21.1721L13.1394 28.0879L13.0206 24.6522L9.59094 21.1721Z" fill="#E27525" stroke="#E27525" stroke-width="0.25" stroke-linecap="round" stroke-linejoin="round"/>
<path d="M27.7043 24.6522L27.5707 28.0879L31.1191 21.1721L27.7043 24.6522Z" fill="#E27525" stroke="#E27525" stroke-width="0.25" stroke-linecap="round" stroke-linejoin="round"/>
<path d="M18.0539 21.5571L17.267 25.8962L18.2617 31.02L18.4845 24.2672L18.0539 21.5571Z" fill="#E27525" stroke="#E27525" stroke-width="0.25" stroke-linecap="round" stroke-linejoin="round"/>
<path d="M22.6562 21.5571L22.2405 24.2524L22.4484 31.02L23.4431 25.8962L22.6562 21.5571Z" fill="#E27525" stroke="#E27525" stroke-width="0.25" stroke-linecap="round" stroke-linejoin="round"/>
<path d="M23.4431 25.8963L22.4484 31.0201L23.1611 31.5237L27.5707 28.088L27.7043 24.6523L23.4431 25.8963Z" fill="#F5841F" stroke="#F5841F" stroke-width="0.25" stroke-linecap="round" stroke-linejoin="round"/>
<path d="M13.0204 24.6523L13.1392 28.088L17.5487 31.5237L18.2614 31.0201L17.2667 25.8963L13.0204 24.6523Z" fill="#F5841F" stroke="#F5841F" stroke-width="0.25" stroke-linecap="round" stroke-linejoin="round"/>
<path d="M23.5322 36.2477L23.5767 34.8408L23.1907 34.515H17.5192L17.148 34.8408L17.1777 36.2477L12.4266 33.9967L14.0895 35.3591L17.4598 37.6841H23.2352L26.6203 35.3591L28.2683 33.9967L23.5322 36.2477Z" fill="#C0AC9D" stroke="#C0AC9D" stroke-width="0.25" stroke-linecap="round" stroke-linejoin="round"/>
<path d="M23.1609 31.5235L22.4482 31.0201H18.2613L17.5487 31.5235L17.1478 34.8408L17.519 34.5149H23.1906L23.5766 34.8408L23.1609 31.5235Z" fill="#161616" stroke="#161616" stroke-width="0.25" stroke-linecap="round" stroke-linejoin="round"/>
<path d="M38.3049 13.9751L39.567 7.84429L37.6665 2.14288L23.161 12.8793L28.7434 17.5885L36.6272 19.8839L38.3643 17.8551L37.6072 17.3071L38.8097 16.2113L37.8892 15.5005L39.0919 14.5823L38.3049 13.9751Z" fill="#763E1A" stroke="#763E1A" stroke-width="0.25" stroke-linecap="round" stroke-linejoin="round"/>
<path d="M1.14282 7.84429L2.41967 13.9751L1.60309 14.5823L2.82054 15.5005L1.90002 16.2113L3.10263 17.3071L2.34543 17.8551L4.08254 19.8839L11.9664 17.5885L17.5488 12.8793L3.04325 2.14288L1.14282 7.84429Z" fill="#763E1A" stroke="#763E1A" stroke-width="0.25" stroke-linecap="round" stroke-linejoin="round"/>
<path d="M36.6274 19.8838L28.7436 17.5884L31.1191 21.1722L27.5707 28.0879L32.2623 28.0287H39.2701L36.6274 19.8838Z" fill="#F5841F" stroke="#F5841F" stroke-width="0.25" stroke-linecap="round" stroke-linejoin="round"/>
<path d="M11.9661 17.5884L4.08239 19.8838L1.45447 28.0287H8.44742L13.139 28.0879L9.59064 21.1722L11.9661 17.5884Z" fill="#F5841F" stroke="#F5841F" stroke-width="0.25" stroke-linecap="round" stroke-linejoin="round"/>
<path d="M22.6562 21.5573L23.161 12.8792L25.4474 6.70398H15.2623L17.5487 12.8792L18.0535 21.5573L18.2466 24.2821L18.2614 31.0201H22.4483L22.4631 24.2821L22.6562 21.5573Z" fill="#F5841F" stroke="#F5841F" stroke-width="0.25" stroke-linecap="round" stroke-linejoin="round"/>
</svg>
