<svg width="152" height="152" viewBox="0 0 152 152" fill="none" xmlns="http://www.w3.org/2000/svg">
<path d="M0 76C0 34.0264 34.0264 0 76 0C117.974 0 152 34.0264 152 76C152 117.974 117.974 152 76 152C34.0264 152 0 117.974 0 76Z" fill="#DBFF00"/>
<path d="M78.1197 66.2198C71.1297 60.9598 72.8597 49.4298 83.1197 47.7898C89.0197 47.1398 94.4097 51.2798 95.1297 57.0198C96.2697 66.0998 85.6197 71.8598 78.1197 66.2198Z" fill="#3100FB"/>
<path d="M115.75 99.3698C114.77 97.3598 112.72 94.9698 109.81 92.5698C104.01 87.7798 94.9797 83.0798 84.9897 81.3698C71.3297 79.0398 60.2097 84.3398 52.0697 90.9198C43.9297 97.5098 38.8197 105.34 37.2297 107.98L36.5497 109.11L36.3097 107.81C35.9997 106.13 35.5297 105.19 35.0497 104.7C34.5997 104.24 34.1197 104.14 33.6497 104.22C33.1397 104.3 32.6197 104.59 32.1697 104.93C31.7197 105.27 31.4197 105.62 31.3297 105.75C30.4722 107.051 30.557 108.342 30.5884 108.819L30.5897 108.84L30.6097 109.13C31.4197 114.49 31.8697 117.34 33.7397 123.45C40.3897 121.02 43.8697 119.68 45.7197 118.91C47.5153 118.168 47.73 117.979 47.8137 117.905L47.8197 117.9H47.8297C50.0597 115.82 49.2797 112.64 47.1397 111.66C46.3597 111.3 45.5197 111.28 44.6097 111.62L41.7497 112.74L42.4797 111.49C42.545 111.373 42.6147 111.252 42.6816 111.136C42.7581 111.003 42.831 110.876 42.8897 110.77V110.75C42.8897 110.75 42.9397 110.67 42.9597 110.64C42.972 110.621 42.9844 110.599 43.0015 110.568C43.012 110.549 43.0244 110.527 43.0397 110.5C43.3197 110 46.3697 104.6 51.9197 99.0398C57.4997 93.4598 65.6297 87.6698 76.0497 86.5698C84.2797 85.6998 101.24 88.0598 112.72 102.46C113.46 103.39 114.1 103.68 114.54 103.75C114.96 103.82 115.27 103.71 115.41 103.64C116 103.2 116.3 102.64 116.36 101.96C116.42 101.25 116.22 100.38 115.73 99.3698H115.75Z" fill="#3100FB"/>
<path d="M43.6297 55.3798C34.5497 58.5398 34.0597 71.3998 40.9497 75.1698H40.9597C48.0397 79.0398 56.2197 70.8598 54.0197 62.0998C52.7197 56.9398 48.2597 54.0498 43.6297 55.3798Z" fill="#3100FB"/>
</svg>
