<svg width="1440" height="584" viewBox="0 0 1440 584" fill="none" xmlns="http://www.w3.org/2000/svg">
<g clip-path="url(#clip0_2858_54650)">
<rect width="1440" height="584" fill="#F3F4F6"/>
<circle cx="1360" cy="292" r="640" fill="white"/>
<path d="M1500.74 147.993C1501.05 146.019 1498.53 142.04 1495.78 142.105C1494.69 142.13 1493.61 142.426 1492.52 142.371C1489.61 142.223 1488.1 139.876 1486.98 137.933C1485.86 135.99 1483.62 133.771 1480.78 134.265C1476.7 134.975 1474.64 140.556 1469.99 136.366C1466.95 133.623 1466.72 129.785 1463.28 127.124C1460.92 125.299 1457.07 124.215 1453.9 125.226C1449.77 126.544 1448.23 130.789 1443.83 131.528C1438.95 132.346 1435.44 128.505 1433.89 125.733C1432 122.372 1431.3 118.738 1429.68 115.318C1428.18 112.15 1425.17 107.908 1419.77 108.002C1415.21 108.081 1413.2 111.07 1410.96 113.444C1408.04 116.533 1401.99 127.621 1395.2 126.282C1392.55 125.761 1391.23 123.583 1388.84 122.61C1385 121.043 1380.11 123.197 1377.79 125.906C1375.48 128.615 1374.56 131.887 1371.95 134.451C1371.27 135.114 1370.45 135.742 1369.39 136.042C1365.73 137.077 1362.33 133.895 1358.42 133.657C1355.72 133.495 1353.22 134.806 1351.67 136.408C1350.12 138.009 1349.27 139.9 1348.09 141.657C1347.76 142.147 1347.38 142.64 1346.78 142.972C1345.07 143.924 1342.65 143.12 1340.55 142.747C1335.36 141.822 1329.46 144.29 1328 148H1500.74V147.993Z" fill="#F3F4F6"/>
<path d="M1210.69 91.9945C1210.43 90.4152 1212.52 87.2319 1214.8 87.2844C1215.7 87.3037 1216.59 87.5412 1217.5 87.497C1219.91 87.3783 1221.16 85.5008 1222.09 83.9465C1223.02 82.3921 1224.87 80.6168 1227.22 81.0116C1230.6 81.5804 1232.31 86.0447 1236.16 82.693C1238.67 80.4981 1238.87 77.428 1241.72 75.2993C1243.67 73.8388 1246.86 72.9719 1249.48 73.7808C1252.91 74.8355 1254.18 78.2314 1257.83 78.8222C1261.87 79.4766 1264.77 76.4037 1266.06 74.1867C1267.63 71.4976 1268.21 68.5904 1269.55 65.8543C1270.79 63.3198 1273.29 59.9267 1277.76 60.0012C1281.54 60.0647 1283.2 62.4556 1285.06 64.3551C1287.47 66.8261 1292.48 75.6969 1298.11 74.6257C1300.3 74.2088 1301.39 72.4667 1303.37 71.6881C1306.55 70.4346 1310.61 72.1574 1312.52 74.3247C1314.44 76.492 1315.2 79.1094 1317.37 81.1607C1317.93 81.6908 1318.61 82.1933 1319.49 82.4335C1322.51 83.2618 1325.33 80.7162 1328.57 80.5257C1330.8 80.396 1332.88 81.4451 1334.16 82.7261C1335.44 84.0072 1336.15 85.5202 1337.13 86.9255C1337.4 87.3175 1337.71 87.7123 1338.21 87.9774C1339.63 88.7394 1341.63 88.0961 1343.37 87.7979C1347.67 87.058 1352.55 89.032 1353.77 92H1210.69V91.9945Z" fill="#F3F4F6"/>
<path d="M719.018 124.558C718.811 123.373 720.464 120.986 722.271 121.024C722.988 121.04 723.691 121.217 724.408 121.182C726.318 121.094 727.308 119.685 728.044 118.52C728.781 117.355 730.244 116.025 732.108 116.319C734.788 116.745 736.138 120.096 739.184 117.579C741.178 115.934 741.328 113.632 743.584 112.034C745.134 110.938 747.654 110.291 749.731 110.894C752.441 111.683 753.451 114.232 756.338 114.674C759.534 115.163 761.834 112.861 762.854 111.197C764.094 109.179 764.554 107 765.614 104.948C766.598 103.047 768.571 100.505 772.111 100.558C775.104 100.606 776.421 102.399 777.891 103.824C779.801 105.677 783.771 112.328 788.221 111.525C789.958 111.213 790.824 109.905 792.391 109.321C794.908 108.38 798.118 109.675 799.634 111.298C801.151 112.924 801.751 114.885 803.468 116.423C803.911 116.821 804.451 117.197 805.144 117.377C807.538 117.999 809.768 116.088 812.331 115.946C814.101 115.848 815.741 116.635 816.758 117.598C817.774 118.558 818.328 119.695 819.108 120.746C819.324 121.04 819.571 121.337 819.961 121.536C821.084 122.107 822.668 121.624 824.044 121.4C827.448 120.844 831.314 122.325 832.274 124.551H719.018V124.558Z" fill="#F3F4F6"/>
</g>
<defs>
<clipPath id="clip0_2858_54650">
<rect width="1440" height="584" fill="white"/>
</clipPath>
</defs>
</svg>
