<svg width="31" height="23" viewBox="0 0 31 23" fill="none" xmlns="http://www.w3.org/2000/svg">
<path d="M1.07278 8.37336C1.24278 8.77336 1.58278 8.98336 2.09278 8.98336V8.96336H29.8728C30.4828 8.96336 30.8928 8.63336 30.9728 8.08336C31.0328 7.63336 30.7228 7.16336 30.2728 7.03336C30.1428 6.99336 29.9628 6.97336 29.7228 6.97336H4.56278L6.21278 5.18336C6.26233 5.13381 6.30278 5.09033 6.33915 5.05123C6.36884 5.01932 6.39581 4.99033 6.42278 4.96336L7.48278 3.91336C8.21278 3.19336 8.94278 2.46336 9.65278 1.73336C9.92278 1.45336 10.0328 1.09336 9.94278 0.74336C9.86278 0.42336 9.62278 0.17336 9.29278 0.0633601C8.86278 -0.0766399 8.55278 0.0133601 8.21278 0.35336L1.36278 7.22336C1.00278 7.58336 0.90278 7.96336 1.07278 8.37336Z" fill="#03045E"/>
<path d="M2.10278 13.1833C1.68278 13.1833 1.14278 13.3233 1.01278 14.0233L1.02278 14.0533C0.942777 14.4933 1.20278 14.9534 1.61278 15.1033C1.78278 15.1733 2.01278 15.2033 2.27278 15.2033H27.4428L25.7628 17.0033C25.7199 17.0462 25.6828 17.0862 25.6483 17.1233C25.6185 17.1555 25.5906 17.1855 25.5628 17.2133L24.5028 18.2733C23.7728 19.0033 23.0427 19.7334 22.3128 20.4733C22.0128 20.7733 21.9428 21.0733 22.0728 21.4833C22.2028 21.8833 22.4328 22.0833 22.8628 22.1533C23.1028 22.1933 23.4128 22.1933 23.7928 21.8033L28.9128 16.6833C29.5228 16.0833 30.1228 15.4833 30.7128 14.8733C30.9928 14.5733 31.0628 14.2833 30.9428 13.8933C30.8228 13.5033 30.6028 13.2933 30.1828 13.2033C30.1128 13.1833 29.9728 13.1833 29.8928 13.1833H2.10278Z" fill="#03045E"/>
</svg>
