<svg width="40" height="40" viewBox="0 0 40 40" fill="none" xmlns="http://www.w3.org/2000/svg">
<path d="M30.1817 14.3979C29.458 14.7186 28.6804 14.9353 27.863 15.0333C28.7064 14.5286 29.3374 13.7343 29.6383 12.7986C28.8459 13.2693 27.9786 13.6006 27.0742 13.7781C26.4661 13.1288 25.6605 12.6984 24.7827 12.5537C23.9048 12.4091 23.0038 12.5583 22.2195 12.9783C21.4351 13.3982 20.8114 14.0654 20.445 14.8761C20.0787 15.6869 19.9903 16.5959 20.1935 17.4621C18.5879 17.3814 17.0172 16.9641 15.5833 16.2372C14.1495 15.5102 12.8845 14.4899 11.8704 13.2424C11.5237 13.8405 11.3243 14.534 11.3243 15.2725C11.3239 15.9373 11.4877 16.592 11.801 17.1784C12.1143 17.7648 12.5675 18.2648 13.1204 18.634C12.4792 18.6136 11.8521 18.4403 11.2914 18.1286V18.1806C11.2913 19.1131 11.6139 20.0169 12.2043 20.7386C12.7947 21.4603 13.6167 21.9555 14.5307 22.1402C13.9358 22.3012 13.3122 22.3249 12.7069 22.2096C12.9648 23.0119 13.4671 23.7135 14.1435 24.2162C14.8199 24.7188 15.6366 24.9974 16.4792 25.0128C15.0489 26.1357 13.2824 26.7448 11.4639 26.7421C11.1418 26.7422 10.8199 26.7234 10.5 26.6858C12.3458 27.8726 14.4945 28.5024 16.689 28.5C24.1176 28.5 28.1786 22.3474 28.1786 17.0113C28.1786 16.838 28.1742 16.6629 28.1664 16.4895C28.9563 15.9183 29.6382 15.2109 30.18 14.4005L30.1817 14.3979V14.3979Z" fill="#2D00F7"/>
<path fill-rule="evenodd" clip-rule="evenodd" d="M20 38.05C29.9687 38.05 38.05 29.9687 38.05 20C38.05 10.0313 29.9687 1.95 20 1.95C10.0313 1.95 1.95 10.0313 1.95 20C1.95 29.9687 10.0313 38.05 20 38.05ZM20 39C30.4934 39 39 30.4934 39 20C39 9.50659 30.4934 1 20 1C9.50659 1 1 9.50659 1 20C1 30.4934 9.50659 39 20 39Z" fill="white"/>
</svg>
