<svg width="24" height="24" viewBox="0 0 24 24" fill="none" xmlns="http://www.w3.org/2000/svg">
<path d="M20.3169 4.49291C18.7869 3.80293 17.147 3.29294 15.432 3.00295C15.4168 3.00002 15.401 3.00191 15.3868 3.00836C15.3726 3.01481 15.3608 3.0255 15.353 3.03895C15.143 3.40794 14.909 3.88892 14.7451 4.26891C12.9262 3.99716 11.0771 3.99716 9.25821 4.26891C9.07555 3.84779 8.86957 3.43716 8.64123 3.03895C8.63349 3.02533 8.62178 3.0144 8.60767 3.00761C8.59355 3.00082 8.5777 2.9985 8.56223 3.00095C6.84828 3.29094 5.20833 3.80093 3.67737 4.49191C3.6642 4.49743 3.65304 4.50685 3.64538 4.51891C0.533465 9.09377 -0.31951 13.5556 0.0994778 17.9615C0.100644 17.9723 0.103993 17.9827 0.109322 17.9922C0.114652 18.0017 0.121849 18.0099 0.130477 18.0165C1.94682 19.3389 3.9727 20.3463 6.1233 20.9964C6.1383 21.001 6.15433 21.001 6.16932 20.9964C6.1843 20.9918 6.19754 20.9827 6.2073 20.9704C6.67008 20.3515 7.08017 19.6949 7.43327 19.0075C7.43817 18.9981 7.44099 18.9877 7.44155 18.9772C7.4421 18.9666 7.44038 18.956 7.43649 18.9461C7.43261 18.9363 7.42665 18.9274 7.41902 18.92C7.41138 18.9126 7.40226 18.907 7.39227 18.9035C6.74629 18.6602 6.12039 18.3667 5.52032 18.0255C5.50954 18.0194 5.50045 18.0106 5.49388 18.0001C5.4873 17.9896 5.48345 17.9776 5.48266 17.9652C5.48186 17.9528 5.48416 17.9404 5.48934 17.9291C5.49451 17.9178 5.50241 17.908 5.51232 17.9005C5.63832 17.8075 5.76431 17.7105 5.88431 17.6135C5.89511 17.6048 5.90812 17.5992 5.92189 17.5975C5.93566 17.5957 5.94966 17.5978 5.96231 17.6035C9.88919 19.3675 14.1421 19.3675 18.023 17.6035C18.0356 17.5975 18.0498 17.5951 18.0637 17.5967C18.0777 17.5983 18.091 17.6038 18.102 17.6125C18.222 17.7105 18.347 17.8075 18.4739 17.9005C18.484 17.9078 18.492 17.9175 18.4973 17.9287C18.5027 17.9399 18.5052 17.9522 18.5046 17.9646C18.504 17.977 18.5003 17.9891 18.4939 17.9997C18.4875 18.0103 18.4786 18.0192 18.4679 18.0255C17.87 18.3695 17.248 18.6605 16.595 18.9025C16.585 18.9061 16.5758 18.9119 16.5682 18.9193C16.5606 18.9268 16.5546 18.9358 16.5507 18.9457C16.5469 18.9556 16.5451 18.9663 16.5457 18.9769C16.5463 18.9876 16.5491 18.998 16.554 19.0075C16.914 19.6945 17.326 20.3484 17.779 20.9694C17.7884 20.9822 17.8015 20.9917 17.8165 20.9967C17.8316 21.0017 17.8478 21.002 17.863 20.9974C20.0173 20.3491 22.0464 19.3413 23.8648 18.0165C23.8737 18.0103 23.8811 18.0023 23.8866 17.993C23.8921 17.9837 23.8956 17.9733 23.8968 17.9625C24.3968 12.8687 23.0588 8.44279 20.3479 4.52091C20.3412 4.50816 20.3302 4.49823 20.3169 4.49291ZM8.02025 15.2786C6.83828 15.2786 5.86331 14.2096 5.86331 12.8987C5.86331 11.5867 6.81928 10.5187 8.02025 10.5187C9.23021 10.5187 10.1962 11.5957 10.1772 12.8987C10.1772 14.2106 9.22121 15.2786 8.02025 15.2786V15.2786ZM15.995 15.2786C14.8121 15.2786 13.8381 14.2096 13.8381 12.8987C13.8381 11.5867 14.7931 10.5187 15.995 10.5187C17.205 10.5187 18.171 11.5957 18.152 12.8987C18.152 14.2106 17.206 15.2786 15.995 15.2786V15.2786Z" fill="#2D00F7"/>
</svg>
