<svg width="25" height="24" viewBox="0 0 25 24" fill="none" xmlns="http://www.w3.org/2000/svg">
<path d="M12.9699 16.56C15.1449 16.56 16.9149 14.79 16.9149 12.615C16.9149 10.44 15.1449 8.67 12.9699 8.67C10.7949 8.67 9.0249 10.44 9.0249 12.615C9.0249 14.79 10.7949 16.56 12.9699 16.56Z" fill="#ffffff"/>
<path fill-rule="evenodd" clip-rule="evenodd" d="M24.6399 11.7L24.6099 11.715C25.0899 12.27 25.0749 12.96 24.6249 13.545C23.2299 15.33 21.6699 16.935 19.8399 18.24C18.2499 19.38 16.5549 20.25 14.6499 20.595C14.2353 20.6665 13.807 20.7107 13.3911 20.7537C13.3707 20.7558 13.3503 20.7579 13.3299 20.76C13.0299 20.775 12.7149 20.79 12.4149 20.76C11.1399 20.655 9.92494 20.31 8.75494 19.785C6.38494 18.705 4.40494 17.07 2.63494 15.12C2.28182 14.7316 1.94718 14.3247 1.60926 13.9138C1.51655 13.801 1.42359 13.688 1.32994 13.575C0.894941 13.035 0.879941 12.24 1.31494 11.685C2.72494 9.89999 4.28494 8.30999 6.08494 7.00499C7.65994 5.87999 9.33994 5.02499 11.2299 4.66499C12.9249 4.34999 14.5599 4.49999 16.1949 5.06999C18.4299 5.84999 20.3499 7.18499 22.0599 8.84999C22.9599 9.74998 23.7999 10.725 24.6399 11.7ZM7.10494 12.6C7.08994 15.855 9.72994 18.495 12.9849 18.495C16.2249 18.48 18.8499 15.855 18.8499 12.615C18.8499 9.37499 16.2399 6.73499 12.9849 6.73499C9.74494 6.73499 7.11994 9.34499 7.10494 12.6Z" fill="#ffffff"/>
</svg>
