<svg width="24" height="24" viewBox="0 0 24 24" fill="none" xmlns="http://www.w3.org/2000/svg">
<path d="M5.99592 11.5462H9.71541L9.71807 11.5408C10.7755 11.5408 11.5114 12.2768 11.5114 13.3368V18.9586C11.1288 18.6876 10.7462 18.499 10.3132 18.4352C10.1113 18.406 9.90404 18.3847 9.69947 18.3847H5.99592V11.5462Z" fill="#2D00F7"/>
<path d="M15.9695 18.39C15.5364 18.39 15.1087 18.39 14.6756 18.3821V18.3927H14.5826C13.8759 18.3927 13.2144 18.5176 12.6166 18.9719C12.614 18.9559 12.6113 18.94 12.6113 18.9267L12.6093 18.9117C12.6047 18.8781 12.6007 18.8483 12.6007 18.8204V16.9793C12.6007 16.5691 12.6004 16.1593 12.6001 15.7496V15.749C12.5995 14.93 12.5989 14.1114 12.6007 13.2917C12.6007 12.3272 13.3393 11.5701 14.2904 11.5621C14.7898 11.5541 15.2893 11.5541 15.7861 11.5541H18.0179C18.0255 11.5541 18.0338 11.5547 18.0424 11.5554C18.0517 11.5561 18.0613 11.5568 18.071 11.5568C18.0869 11.5594 18.1002 11.5594 18.1162 11.5594L18.1162 18.39H15.9695Z" fill="#2D00F7"/>
<path d="M6.6601 21.1611H8.85726C9.84559 21.1611 10.7117 21.4666 11.445 22.1414C11.452 22.147 11.4605 22.1504 11.4712 22.1547C11.4808 22.1586 11.4923 22.1631 11.5061 22.1707V20.8715C11.5061 20.8587 11.5009 20.8441 11.4961 20.8306C11.495 20.8274 11.4938 20.8241 11.4928 20.821C11.2431 19.9761 10.5815 19.482 9.69946 19.482H4.88803V13.0712H3.27271V21.1664H6.6601V21.1611Z" fill="#2D00F7"/>
<path d="M20.834 13.0685V21.1584H20.5896C20.0795 21.1584 19.5701 21.1597 19.0606 21.1611C18.5512 21.1624 18.0418 21.1637 17.5317 21.1637C16.8356 21.1637 16.1395 21.1637 15.4434 21.1531H15.377C14.3329 21.1531 13.4083 21.4374 12.598 22.1946V21.8837C12.598 21.8123 12.5989 21.7402 12.5998 21.6679C12.6015 21.5224 12.6033 21.3757 12.598 21.2301C12.5502 20.1967 13.4801 19.4714 14.3355 19.4714H14.3541C14.9865 19.482 15.6161 19.482 16.2484 19.482C16.7024 19.482 17.1557 19.4807 17.6094 19.4793C18.0637 19.478 18.5183 19.4767 18.9743 19.4767H19.2161V13.0685H20.834Z" fill="#2D00F7"/>
<path fill-rule="evenodd" clip-rule="evenodd" d="M9.71805 10.5127H7.85299C7.08518 9.57483 6.6229 8.37662 6.6229 7.06949C6.6229 4.06732 9.05652 1.63637 12.056 1.63637C15.0555 1.63637 17.4865 4.06732 17.4838 7.06949C17.4838 8.37662 17.0215 9.57483 16.2537 10.5127H15.7835C15.2814 10.5127 14.7792 10.5127 14.2771 10.518C13.3499 10.526 12.5422 10.9829 12.056 11.687C11.5619 10.9617 10.725 10.5127 9.71805 10.5127ZM15.013 7.91036C15.013 7.91205 15.013 7.91388 15.0131 7.91584C15.0134 7.9585 15.0141 8.06396 14.9413 8.16941H14.9386C14.9074 8.21433 14.7227 8.38252 14.5953 8.25576C14.5487 8.21113 14.5095 8.128 14.4878 7.98626C14.2227 8.39909 12.8136 10.3788 10.6851 9.94413C9.82757 9.76968 9.07112 9.31296 8.64293 8.88591C8.29309 8.53799 8.16068 8.20933 8.36841 8.06845C8.39643 8.05444 8.4819 8.02812 8.58155 8.12834C8.59614 8.14272 8.61104 8.1598 8.62612 8.18002C8.72322 8.31021 8.82633 8.42835 8.93374 8.53543C9.75754 9.35477 10.833 9.52443 11.3918 9.48452C12.9509 9.36759 13.895 7.86551 13.9754 7.73755C13.9772 7.73468 13.9786 7.7325 13.9795 7.73104C13.9822 7.72706 13.9842 7.72374 13.9862 7.72042C13.9882 7.71709 13.9902 7.71377 13.9928 7.70979C13.9973 7.70302 14.0018 7.6953 14.0066 7.68723C14.012 7.67795 14.0177 7.66821 14.0239 7.65893L13.9105 7.7018C13.8308 7.72837 13.7564 7.72571 13.6846 7.69117C13.6549 7.67652 13.6285 7.65719 13.6058 7.63433C13.4822 7.51273 13.4673 7.28777 13.6342 7.14124C13.6581 7.11998 13.6979 7.08544 14.7899 6.72412C14.7902 6.7252 14.7905 6.72627 14.7907 6.72735C14.7913 6.72715 14.7919 6.72696 14.7925 6.72676C14.9298 7.22239 14.9576 7.44568 15.0086 7.8549C15.0109 7.87343 15.0133 7.89235 15.0157 7.91169L15.013 7.91036ZM9.51348 5.79956C9.51348 5.79956 9.51348 5.79956 9.51348 5.79956C9.84558 5.70392 10.1617 5.91115 10.2547 6.28044C10.2727 6.3522 10.2809 6.42341 10.2807 6.49283C10.2804 7.03115 9.76994 7.46304 9.3222 7.21561C9.22608 7.16313 9.15007 7.08567 9.09485 6.99329C9.04417 6.90854 9.01099 6.81123 8.9958 6.70918C8.9429 6.35373 9.10832 5.9407 9.51348 5.79956ZM12.3327 5.2606C12.3335 5.26048 12.3342 5.26036 12.335 5.26023C12.7574 5.21241 13.1427 5.50997 13.1931 5.91912C13.1972 5.95184 13.199 5.98395 13.1989 6.01539C13.1988 6.60846 12.4867 6.962 11.9763 6.57798C11.4768 6.20338 11.6017 5.37712 12.3323 5.26022L12.3327 5.2606ZM7.75733 5.42227L7.75735 5.41964C7.77595 5.22835 7.89816 5.02644 7.99646 4.96533C8.09233 4.91283 8.10387 4.98976 8.10354 5.11525C8.10351 5.13557 8.10316 5.1572 8.10279 5.17977L8.10278 5.18045C8.66602 4.05402 9.65167 3.2703 10.8047 3.02854C11.0943 2.9754 11.3945 2.95946 11.6947 2.98072C12.6405 3.06042 13.6102 3.53598 14.2213 4.22143L14.2218 4.222C14.3431 4.35819 14.4795 4.51136 14.4783 4.63922C14.4785 4.67184 14.4698 4.70284 14.4498 4.73152C14.3143 4.92812 14.0433 4.81654 13.9211 4.65713C13.2091 3.71397 12.0135 3.21184 10.8764 3.37922C10.5257 3.4297 9.98639 3.58645 9.41253 4.02747C9.13115 4.24564 8.92176 4.52953 8.71349 4.81188C8.65038 4.89744 8.58738 4.98286 8.5225 5.06627C8.5225 5.0679 8.518 5.07453 8.5097 5.08677C8.49126 5.11393 8.45407 5.16873 8.40566 5.25787L8.42421 5.24164L8.47469 5.19913C8.47617 5.19807 8.47781 5.19687 8.4796 5.19556C8.50019 5.18052 8.54047 5.15109 8.59424 5.14865C8.69497 5.1389 8.75198 5.22751 8.75131 5.34581C8.75143 5.42157 8.72777 5.50982 8.6766 5.59232C8.66331 5.61357 8.62877 5.66405 8.57829 5.70921C8.21854 5.99858 8.06599 6.16261 7.85959 6.38452L7.84886 6.39605C7.84935 6.39824 7.84985 6.40044 7.85034 6.40265L7.84503 6.39734C7.84574 6.39656 7.84645 6.39579 7.84716 6.39502C7.7506 5.96895 7.75199 5.7823 7.75459 5.43286L7.75469 5.41963L7.75733 5.42227Z" fill="#2D00F7"/>
</svg>
