<svg width="30" height="30" viewBox="0 0 30 30" fill="none" xmlns="http://www.w3.org/2000/svg">
<path d="M25.6067 4.39349L23.25 6.75015C21.3415 4.84148 18.8303 3.65359 16.1442 3.38888C13.458 3.12418 10.7632 3.79904 8.5189 5.29847C6.27456 6.7979 4.61957 9.02913 3.8359 11.612C3.05223 14.1949 3.18837 16.9695 4.22113 19.4633C5.25389 21.957 7.11937 24.0155 9.49971 25.288C11.8801 26.5606 14.628 26.9684 17.2753 26.442C19.9226 25.9156 22.3055 24.4875 24.0179 22.4012C25.7304 20.3149 26.6665 17.6993 26.6667 15.0002H30C30 18.4705 28.7967 21.8334 26.5951 24.516C24.3935 27.1986 21.3299 29.0348 17.9262 29.7118C14.5226 30.3888 10.9895 29.8647 7.92895 28.2288C4.86841 26.5929 2.46978 23.9463 1.14177 20.7402C-0.186245 17.534 -0.361477 13.9665 0.645929 10.6456C1.65334 7.32476 3.78105 4.45591 6.66653 2.52792C9.55202 0.599932 13.0167 -0.267912 16.4704 0.072262C19.924 0.412436 23.1528 1.93958 25.6067 4.39349V4.39349Z" fill="#2D00F7"/>
</svg>
