<svg width="300" height="300" viewBox="0 0 300 300" fill="none" xmlns="http://www.w3.org/2000/svg">
<path d="M150 0C67.16 0 0 67.16 0 150C0 232.84 67.16 300 150 300C232.84 300 300 232.84 300 150C300 67.16 232.84 0 150 0Z" fill="#DBFF00"/>
<path d="M33.95 131.63C31.24 119.54 31.3 114.5 31.41 104.45C31.9 99.16 35.26 93.58 37.97 91.88C41.04 90.16 41 93.38 40.93 97.84C56.51 66.79 83.73 45.14 115.6 38.44C123.59 36.91 131.87 36.48 140.2 37.19C166.38 39.4 193.12 52.53 210 71.46C214.22 76.2 219.01 81.57 216.3 85.49C212.56 90.89 205.05 87.82 201.72 83.41C182.04 57.34 149.05 43.48 117.67 48.09C107.98 49.52 93.1 53.78 77.26 66.02C67.09 73.88 60.43 84.79 52.67 94.75C52.59 94.87 51.38 96.54 49.35 100.19C49.55 100.02 49.75 99.85 49.94 99.69L51.37 98.55C51.84 98.19 53.1 97.24 54.64 97.1C59.21 96.68 60.47 103.44 56.93 109.34C56.59 109.9 55.65 111.34 54.18 112.53C44.06 120.7 39.82 125.28 33.95 131.62V131.63ZM147.93 136.44C134.13 126.05 137.54 103.3 157.79 100.06C169.44 98.78 180.08 106.95 181.5 118.29C183.75 136.21 162.73 147.58 147.93 136.45V136.44ZM74.57 154.1C60.97 146.66 61.94 121.28 79.85 115.04C88.98 112.42 97.79 118.12 100.35 128.31C104.68 145.59 88.54 161.74 74.57 154.1ZM229.54 180.45C228.4 182.07 219.36 190.09 217.1 175.24H217.09C209.86 186.43 170.93 241.42 112 229.42C69.1 220.68 35.32 186.34 48.08 177.72C48.91 177.31 51.88 176.33 55.15 180.72C78.45 211.94 114.15 218.08 131.58 216.79C175.61 213.53 201.89 170.2 202.99 168.35C203.11 168.14 203.22 167.96 203.33 167.79C203.58 167.36 203.93 166.78 204.26 166.24H204.24L200.96 167.43C198.77 168.18 196.67 168.07 194.73 167.11C189.51 164.54 187.95 156.74 193.43 151.98C194.09 151.4 195.2 150.44 225.39 140.48C229.32 154.76 230.05 160.93 231.52 173.22C231.56 174.25 231.7 177.37 229.53 180.45H229.54Z" fill="#2D00F7"/>
</svg>
