<svg width="640" height="150" viewBox="0 0 640 150" fill="none" xmlns="http://www.w3.org/2000/svg">
<path fill-rule="evenodd" clip-rule="evenodd" d="M231.384 86.4217C231.384 87.2302 231.177 87.9696 230.773 88.6499C230.369 89.3203 229.826 89.8626 229.156 90.2668C228.485 90.671 227.736 90.878 226.928 90.878C226.119 90.878 225.39 90.671 224.739 90.2668C224.088 89.8626 223.556 89.3203 223.152 88.6499C222.747 87.9795 222.54 87.2302 222.54 86.4217V64.6234C222.54 62.0107 221.959 59.6544 220.785 57.5347C219.612 55.4249 217.976 53.7192 215.856 52.4376C213.736 51.1559 211.271 50.515 208.432 50.515C205.593 50.515 203.187 51.1559 201.077 52.4376C198.958 53.7192 197.321 55.415 196.148 57.5347C194.974 59.6544 194.393 62.0107 194.393 64.6234V98.5681H204.045V63.4797C204.045 62.6713 204.252 61.9318 204.656 61.2516C205.06 60.5811 205.593 60.0389 206.243 59.6347C206.894 59.2305 207.624 59.0234 208.432 59.0234C209.241 59.0234 209.98 59.2305 210.66 59.6347C211.331 60.0389 211.873 60.5811 212.277 61.2516C212.681 61.922 212.888 62.6713 212.888 63.4797V85.2781C212.888 87.8415 213.47 90.1978 214.643 92.3273C215.817 94.4667 217.453 96.1724 219.573 97.454C221.683 98.7357 224.138 99.3766 226.928 99.3766C229.718 99.3766 232.232 98.7357 234.352 97.454C236.461 96.1724 238.108 94.4667 239.281 92.3273C240.454 90.1879 241.036 87.8415 241.036 85.2781V51.3333H231.384V86.4217ZM258.398 53.1868C256.308 54.4291 254.641 56.0755 253.399 58.146C252.157 60.2164 251.546 62.5332 251.546 65.0966V98.5681H261.198V81.226H280.098V72.7275H261.198V65.1065C261.198 63.667 261.701 62.4346 262.716 61.3994C263.732 60.3642 264.954 59.8516 266.393 59.8516H282.385V51.3531H265.309C262.785 51.3531 260.488 51.9742 258.388 53.2066L258.398 53.1868ZM306.047 59.8319H292.895V51.3333H328.86V59.8319H315.699V85.6133C315.699 86.826 316.123 87.871 316.98 88.7485C317.838 89.6161 318.873 90.0597 320.086 90.0597H323.458V98.5583H320.086C317.296 98.5583 314.841 97.9174 312.731 96.6357C310.611 95.3541 308.975 93.6484 307.802 91.509C306.628 89.3795 306.047 87.0232 306.047 84.4598V59.8319ZM349.022 59.8319H362.174V84.4598C362.174 87.0232 362.756 89.3795 363.929 91.509C365.103 93.6484 366.739 95.3541 368.859 96.6357C370.969 97.9174 373.424 98.5583 376.214 98.5583H379.586V90.0597H376.214C375.001 90.0597 373.966 89.6161 373.108 88.7485C372.25 87.871 371.826 86.826 371.826 85.6133V59.8319H384.988V51.3333H349.022V59.8319ZM429.62 89.1921C429.798 89.4583 430.024 89.6752 430.291 89.833L430.31 89.8428C430.586 90.0006 430.892 90.0795 431.257 90.0795H435.841V98.578H429.768C427.875 98.578 426.15 98.1047 424.602 97.1583C423.054 96.2216 421.822 94.9794 420.924 93.4513L415.591 83.8682H405.13V98.578H395.478V51.3432H416.596C419.702 51.3432 422.522 52.0333 425.065 53.4037C427.609 54.7742 429.63 56.677 431.138 59.1023C432.647 61.5276 433.396 64.4558 433.396 67.6008C433.396 70.7458 432.657 73.5261 431.168 75.9317C429.689 78.3373 427.727 80.2401 425.302 81.6302L429.62 89.1921ZM419.623 74.443C420.885 73.8416 421.891 72.9543 422.63 71.781V71.7613C423.369 70.598 423.744 69.198 423.744 67.5811C423.744 65.9642 423.369 64.5741 422.6 63.4008C421.831 62.2375 420.826 61.3501 419.593 60.7389C418.351 60.1375 416.971 59.8319 415.443 59.8319H405.12V75.35H415.443C416.971 75.35 418.361 75.0542 419.623 74.443ZM474.607 51.9742C472.941 51.008 471.078 50.5249 469.007 50.5249C466.937 50.5249 465.083 51.0277 463.437 52.0432C461.79 53.0587 460.588 54.577 459.828 56.5981L444.438 98.578H454.564L457.866 89.064H479.862L483.037 98.578H493.635L478.186 56.5389C477.466 54.4685 476.273 52.9502 474.607 51.984V51.9742ZM460.775 80.5556L467.992 59.8417C468.08 59.5755 468.219 59.3586 468.396 59.2009C468.573 59.0431 468.8 58.9643 469.066 58.9643C469.333 58.9643 469.569 59.0333 469.776 59.1713C469.983 59.3093 470.121 59.5361 470.21 59.8417L477.023 80.5556H460.775ZM518.007 51.3333C523.045 51.3333 527.412 52.3488 531.1 54.3699V54.3601C534.787 56.391 537.656 59.1812 539.706 62.7304C541.747 66.2895 542.773 70.3515 542.773 74.9458C542.773 79.5401 541.757 83.6119 539.706 87.1612C537.656 90.7203 534.787 93.5104 531.1 95.5315C527.412 97.5526 523.045 98.5681 518.007 98.5681H502.084V51.3333H518.007ZM525.805 88.2457C528.073 87.033 529.867 85.288 531.169 83.0204V83.0105C532.48 80.7429 533.13 78.0908 533.13 74.9458C533.13 71.8008 532.47 69.0994 531.169 66.8515C529.867 64.6036 528.073 62.8684 525.805 61.6558C523.528 60.4431 520.935 59.8319 518.007 59.8319H511.726V90.0696H518.007C520.935 90.0696 523.538 89.4583 525.805 88.2457ZM558.892 53.1868C556.802 54.4291 555.136 56.0755 553.904 58.146C552.661 60.2164 552.05 62.5332 552.05 65.0966C552.05 66.9402 552.454 68.6951 553.263 70.3613C554.071 72.0275 555.175 73.4867 556.565 74.7486C555.175 76.0106 554.071 77.4697 553.263 79.1359C552.454 80.8021 552.05 82.5767 552.05 84.4697C552.05 87.0823 552.681 89.4485 553.943 91.5879C555.205 93.7273 556.901 95.4231 559.04 96.685C561.18 97.947 563.546 98.578 566.158 98.578H585.255V90.0795H567.302C566.267 90.0795 565.32 89.833 564.472 89.34C563.615 88.8471 562.944 88.1668 562.451 87.3189C561.958 86.4612 561.712 85.5246 561.712 84.4894C561.712 83.4542 561.958 82.5077 562.451 81.6598C562.944 80.8021 563.625 80.1218 564.472 79.5993C565.33 79.0866 566.267 78.8204 567.302 78.8204H582.958V70.3219H566.898C565.951 70.3219 565.084 70.0853 564.295 69.612C563.506 69.1388 562.875 68.5078 562.402 67.7191C561.929 66.9304 561.692 66.0628 561.692 65.1163C561.692 64.1698 561.929 63.2431 562.402 62.4544C562.875 61.6656 563.506 61.0347 564.295 60.5614C565.084 60.0882 565.951 59.8516 566.898 59.8516H585.255V51.3531H565.823C563.299 51.3531 561.002 51.9742 558.902 53.2066L558.892 53.1868ZM630.439 89.833C630.715 89.9907 631.021 90.0696 631.386 90.0696L631.406 90.0795H635.99V98.578H629.917C628.024 98.578 626.299 98.1047 624.751 97.1583C623.203 96.2216 621.97 94.9794 621.073 93.4513L615.74 83.8682H605.279V98.578H595.627V51.3432H616.745C619.851 51.3432 622.67 52.0333 625.214 53.4037C627.758 54.7742 629.779 56.677 631.287 59.1023C632.796 61.5276 633.545 64.4558 633.545 67.6008C633.545 70.7458 632.806 73.5261 631.317 75.9317C629.838 78.3373 627.876 80.2401 625.451 81.6302L629.769 89.1921C629.946 89.4583 630.173 89.6752 630.439 89.833ZM619.772 74.443C621.034 73.8416 622.039 72.9543 622.779 71.781V71.7613C623.518 70.598 623.893 69.198 623.893 67.5811C623.893 65.9642 623.518 64.5741 622.749 63.4008C621.98 62.2375 620.975 61.3501 619.742 60.7389C618.5 60.1375 617.12 59.8319 615.592 59.8319H605.269V75.35H615.592C617.12 75.35 618.51 75.0542 619.772 74.443Z" fill="white"/>
<path d="M75.9754 4C36.7758 4 5 35.7758 5 74.9754C5 114.175 36.7758 145.951 75.9754 145.951C115.175 145.951 146.951 114.175 146.951 74.9754C146.951 35.7758 115.165 4 75.9754 4Z" fill="#DBFF00"/>
<path fill-rule="evenodd" clip-rule="evenodd" d="M30.8504 49.9432C33.0095 49.7461 33.6109 52.9404 31.9349 55.7404C31.7771 56.0066 31.3236 56.6868 30.6335 57.2488C25.8836 61.08 23.8755 63.2447 21.1326 66.2018L21.0603 66.2797C19.7832 60.5819 19.808 58.1927 19.857 53.4744L19.8575 53.4235C20.0941 50.9193 21.6814 48.2771 22.9631 47.4785C24.4124 46.6602 24.3927 48.1883 24.3631 50.2982C31.7278 35.5983 44.6136 25.3547 59.6881 22.19C63.4641 21.4703 67.3782 21.2632 71.3218 21.5984C83.7147 22.6534 96.3638 28.8646 104.35 37.8166L104.358 37.8259C106.347 40.0617 108.607 42.6008 107.327 44.4517C105.562 47.0052 102.013 45.5461 100.436 43.4658C91.1188 31.1321 75.5119 24.566 60.6642 26.7547C56.0797 27.435 49.0403 29.4561 41.5474 35.2434C37.8771 38.0788 35.1708 41.7577 32.4654 45.4352L32.4653 45.4353C31.6244 46.5784 30.7835 47.7215 29.9137 48.839C29.8743 48.8883 29.3025 49.6869 28.3462 51.4122C28.3905 51.3728 28.4374 51.3334 28.4842 51.2939C28.531 51.2545 28.5778 51.2151 28.6222 51.1756L29.3025 50.6334L29.3245 50.617C29.5659 50.4381 30.1433 50.0101 30.8504 49.9432ZM74.9895 68.5572C68.4529 63.6375 70.0698 52.8812 79.6528 51.3432C85.1641 50.7418 90.202 54.6066 90.8725 59.9699C91.9372 68.4487 81.9894 73.8219 74.9895 68.5572ZM42.7799 58.4319C34.3011 61.3797 33.8476 73.3979 40.2757 76.9176C46.8911 80.5359 54.5221 72.8951 52.4714 64.7121C51.2587 59.891 47.0982 57.1896 42.7701 58.4319H42.7799ZM111.655 70.4698C113.509 77.2232 113.864 80.1415 114.554 85.9584H114.515C114.544 86.4415 114.603 87.9203 113.578 89.3795C113.036 90.1485 108.767 93.9442 107.692 86.9147C104.271 92.209 85.8542 118.227 57.9728 112.548C37.673 108.417 21.7013 92.1696 27.7351 88.0879C28.1196 87.8908 29.5294 87.4274 31.0773 89.5076C42.0997 104.277 58.9981 107.185 67.2403 106.574C88.0725 105.026 100.505 84.519 101.027 83.6514C101.081 83.5613 101.135 83.4794 101.182 83.4058C101.186 83.3988 101.191 83.392 101.195 83.3852C101.272 83.2673 101.359 83.1212 101.45 82.968C101.512 82.8649 101.575 82.7587 101.639 82.6556L100.091 83.2176C99.0555 83.5725 98.0598 83.5232 97.1429 83.0697C94.6781 81.857 93.9387 78.1697 96.5316 75.912C96.8471 75.6359 97.3696 75.1824 111.655 70.4698Z" fill="#2D00F7"/>
</svg>
