<svg width="296" height="232" viewBox="0 0 296 232" fill="none" xmlns="http://www.w3.org/2000/svg">
<path d="M173.326 227.499C172.963 230.527 177.542 231.015 179.294 231.378C185.537 232.704 191.88 231.628 198.124 230.764C198.837 230.602 199.537 230.452 200.251 230.339C206.757 229.188 213.137 231.215 219.631 231.44C225.023 231.628 230.453 231.54 235.833 230.727C236.684 230.602 238.173 230.464 238.723 229.251C239.274 228.037 238.698 227.111 237.91 226.698C234.069 224.696 229.903 224.696 225.887 224.484C217.729 224.058 209.672 226.886 201.539 226.173C199.738 226.01 197.936 225.597 196.147 225.184C195.559 225.047 194.958 224.922 194.345 224.809C190.93 224.146 187.439 224.033 183.986 224.259C182.222 224.371 180.47 224.559 178.706 224.834C177.255 225.059 175.328 225.084 174.102 226.073C173.639 226.448 173.389 226.948 173.326 227.486V227.499Z" fill="#E5E7EB"/>
<path d="M215.364 224.559C215.615 223.245 215.852 221.919 216.115 220.605C216.24 219.942 216.365 219.292 216.491 218.629C216.616 217.966 216.741 217.315 216.866 216.652C217.854 211.46 218.642 207.093 219.331 202.651C219.706 200.237 220.044 197.835 220.319 195.545C220.457 194.356 220.582 193.168 220.707 192.004C220.732 191.854 220.732 191.679 220.732 191.554C220.845 190.603 220.907 189.64 220.97 188.701V188.589C221.057 187.437 221.583 186.712 222.333 186.687C222.596 186.662 222.884 186.799 223.122 187.05C223.522 187.45 223.735 188.051 223.697 188.626C223.572 190.29 223.459 191.641 223.334 192.893C223.209 194.206 223.059 195.595 222.859 197.121C221.883 205.029 220.394 212.898 218.955 220.505C218.843 221.093 218.73 221.681 218.617 222.282C218.93 222.107 219.256 221.969 219.593 221.844C221.095 221.319 222.884 221.419 224.248 222.244C225.586 223.058 226.863 224.947 226.024 226.511C225.599 227.299 224.635 227.687 223.81 227.9C222.934 228.125 222.008 228.162 221.107 228.087C220.244 228 219.368 227.837 218.517 227.662C217.091 227.262 214.826 226.924 215.364 224.572V224.559Z" fill="#2D00F7"/>
<path d="M196.973 224.797L196.222 220.856L195.484 216.914C194.646 212.46 193.77 207.681 193.032 202.952C192.644 200.512 192.331 198.122 192.043 195.858C191.906 194.732 191.781 193.543 191.656 192.342C191.656 192.104 191.631 191.979 191.618 191.892L191.58 191.566C191.555 191.329 191.53 191.091 191.518 190.866V190.715C191.455 190.127 191.418 189.539 191.368 188.939L191.343 188.789C191.23 187.763 190.717 187.112 190.004 187.075H189.966C189.716 187.075 189.441 187.2 189.203 187.437C188.815 187.825 188.603 188.413 188.653 188.964C188.778 190.59 188.89 191.929 189.016 193.205C189.141 194.481 189.291 195.87 189.491 197.422C190.442 205.241 191.918 213.036 193.357 220.58L193.395 220.781C193.507 221.344 193.607 221.919 193.72 222.482C193.407 222.307 193.082 222.169 192.744 222.044C191.243 221.519 189.466 221.619 188.102 222.445C186.764 223.258 185.5 225.135 186.326 226.698C186.751 227.487 187.714 227.875 188.54 228.087C189.416 228.312 190.329 228.35 191.23 228.262C192.093 228.175 192.957 228.012 193.82 227.837C194.521 227.687 197.661 227.124 196.985 224.759V224.797H196.973Z" fill="#2D00F7"/>
<path d="M247.741 153.339C247.916 153.026 248.191 152.814 248.554 152.738C248.88 152.676 249.242 152.738 249.543 152.889C251.482 153.915 253.384 155.241 255.21 156.817C258.176 159.395 260.728 162.648 262.592 166.238C264.494 169.879 265.682 173.82 266.133 177.924C266.133 178.062 266.133 178.187 266.095 178.324C267.572 178.825 268.898 179.963 269.523 181.352C270.324 183.116 270.162 185.306 268.86 186.795C267.647 188.196 265.62 188.571 263.993 187.733C262.617 187.032 261.917 185.531 261.716 184.055C261.491 184.055 261.278 184.005 261.078 183.917C260.628 183.742 260.227 183.467 259.99 183.016C259.74 182.541 259.777 182.028 259.927 181.515C260.202 180.526 260.903 179.776 261.716 179.2C262.279 178.787 262.905 178.462 263.543 178.174C263.518 178.099 263.505 178.012 263.505 177.937L263.48 177.761V177.711C263.48 177.649 263.455 177.586 263.455 177.524C263.455 177.461 263.455 177.386 263.418 177.324L263.293 176.498C263.193 175.922 263.105 175.447 262.98 174.959C262.742 173.87 262.455 172.819 262.129 171.856C261.967 171.406 261.816 170.955 261.641 170.505C261.641 170.467 261.616 170.442 261.604 170.405C261.579 170.367 261.566 170.33 261.554 170.28L261.454 170.017C261.404 169.917 261.353 169.792 261.316 169.692C261.278 169.591 261.228 169.491 261.178 169.391C260.803 168.54 260.378 167.677 259.902 166.801C259.414 165.951 258.914 165.137 258.388 164.349C258.251 164.149 258.113 163.949 257.963 163.749L257.925 163.686C257.925 163.686 257.838 163.586 257.8 163.511C257.763 163.473 257.738 163.423 257.688 163.336C257.437 163.01 257.137 162.623 256.812 162.222C255.586 160.746 254.234 159.395 252.796 158.193L252.683 158.093C252.683 158.093 252.633 158.056 252.595 158.018C252.595 158.018 252.495 157.931 252.433 157.893L252.383 157.856C252.283 157.781 252.195 157.706 252.095 157.643L251.832 157.455C251.482 157.193 251.094 156.917 250.681 156.63C249.88 156.092 249.042 155.591 248.204 155.153L247.653 154.853H247.854C247.754 154.74 247.691 154.603 247.641 154.453C247.541 154.09 247.578 153.677 247.754 153.339H247.741V153.339Z" fill="#2D00F7"/>
<path d="M148.033 153.871L147.86 153.574L147.798 153.624C147.391 153.239 146.786 153.14 146.329 153.413C144.478 154.293 142.799 154.962 141.219 155.47C139.133 156.065 136.381 156.722 133.677 156.722H132.172C128.333 156.524 124.605 155.396 121.285 153.425C120.803 153.14 120.322 152.868 119.841 152.558L119.705 152.471C119.495 152.335 119.297 152.211 119.088 152.062C119.038 152.025 118.976 151.988 118.927 151.95C118.865 151.901 118.804 151.864 118.742 151.826L118.619 151.74L116.002 152.954L116.039 153.165C116.088 153.524 116.273 153.809 116.532 153.995C118.335 155.297 120.248 156.437 122.198 157.354C125.37 158.965 128.95 159.771 132.702 159.771C137.381 159.771 142.343 158.531 147.206 156.077C147.971 155.619 148.514 154.776 148.021 153.909L148.033 153.871Z" fill="#2D00F7"/>
<path d="M102.189 125.912C90.0189 106.9 83.9829 98.1751 81.0205 94.1967C83.625 99.7242 89.3523 110.593 99.2023 127.696C113.521 152.582 120.606 162.869 121.791 163.613C122.568 163.712 123.581 163.34 124.124 162.733C124.408 162.423 124.506 162.101 124.432 161.791C124.013 160.75 114.422 145.022 102.202 125.912H102.189Z" fill="#03045E"/>
<path d="M119.828 156.164C119.421 157.081 118.804 157.899 117.952 158.494C117.088 159.213 116.063 159.535 115.002 159.56C112.163 159.783 110.052 157.54 108.991 155.222C108.077 152.892 108.608 150.153 110.41 148.22C111.941 146.758 114.261 145.828 116.236 146.82C117.002 147.117 117.717 147.6 118.298 148.22C120.273 150.277 120.976 153.524 119.828 156.177V156.164Z" fill="#2D00F7"/>
<path d="M200.794 88.2129C169.808 88.2129 144.7 113.334 144.7 144.307C144.7 175.281 169.82 200.401 200.794 200.401C231.767 200.401 256.888 175.281 256.888 144.307C256.888 113.334 231.78 88.2129 200.794 88.2129Z" fill="#DBFF00"/>
<path d="M200.794 88.2129C169.808 88.2129 144.7 113.334 144.7 144.307C144.7 175.281 169.82 200.401 200.794 200.401C231.767 200.401 256.888 175.281 256.888 144.307C256.888 113.334 231.78 88.2129 200.794 88.2129Z" fill="url(#paint0_radial_3_59)"/>
<path d="M157.389 138.224C156.368 133.711 156.393 131.818 156.43 128.067C156.614 126.088 157.868 124.01 158.877 123.358C160.033 122.719 160.008 123.924 159.983 125.596C165.812 113.976 175.993 105.885 187.908 103.389C190.895 102.824 193.994 102.664 197.105 102.922C206.892 103.758 216.889 108.652 223.209 115.747C224.783 117.517 226.578 119.534 225.57 120.997C224.168 123.014 221.365 121.87 220.111 120.223C212.758 110.472 200.413 105.283 188.682 107.017C185.055 107.545 179.497 109.144 173.57 113.73C169.771 116.669 167.275 120.751 164.373 124.477C164.336 124.514 163.894 125.141 163.131 126.518L163.352 126.334L163.894 125.903C164.066 125.768 164.533 125.411 165.123 125.362C166.832 125.202 167.299 127.735 165.972 129.949C165.849 130.158 165.492 130.699 164.939 131.141C161.152 134.191 159.565 135.912 157.377 138.273V138.224H157.389ZM200.019 140.019C194.855 136.133 196.134 127.625 203.708 126.407C208.061 125.928 212.044 128.99 212.573 133.219C213.409 139.921 205.552 144.163 200.019 140.019ZM172.587 146.622C167.509 143.843 167.865 134.338 174.566 132.014C177.985 131.043 181.28 133.17 182.227 136.982C183.85 143.437 177.813 149.487 172.587 146.634V146.622ZM230.538 156.446C230.107 157.049 226.738 160.049 225.89 154.491C223.185 158.672 208.626 179.231 186.592 174.743C170.546 171.472 157.918 158.635 162.689 155.414C162.996 155.254 164.115 154.897 165.332 156.532C174.05 168.214 187.391 170.501 193.908 170.021C210.372 168.792 220.197 152.598 220.615 151.909C220.652 151.835 220.701 151.762 220.738 151.7C220.836 151.54 220.971 151.331 221.082 151.122L219.852 151.565C219.029 151.848 218.254 151.799 217.528 151.454C215.573 150.483 214.996 147.581 217.037 145.798C217.283 145.577 217.701 145.232 228.988 141.495C230.452 146.831 230.734 149.143 231.288 153.741C231.312 154.122 231.349 155.291 230.538 156.446V156.446Z" fill="#2D00F7"/>
<path d="M26.2452 2.43533C27.1952 2.43533 27.7968 2.53025 28.5252 2.72009C30.3302 3.16306 31.9135 2.78337 33.4335 1.77087C34.4152 1.10642 35.5235 0.536887 36.6635 0.220481C38.7218 -0.349051 40.6535 0.220481 42.3318 1.51775C44.0735 2.84666 45.9102 3.1947 48.0318 2.62517C51.2618 1.80251 54.0485 2.94158 55.8218 5.9158C56.9935 7.87752 58.5452 8.95331 60.8252 9.30135C64.2452 9.8076 66.3985 12.149 66.8418 15.5978C67.0952 17.5279 68.0452 18.9518 69.6918 19.9326C72.9535 21.8943 74.0935 24.6787 73.2068 28.3174C72.7318 30.1842 73.1435 31.8295 74.2835 33.3483C75.2652 34.6139 75.8985 36.0061 76.0252 37.6198C76.1518 39.4233 75.5502 41.0369 74.4735 42.4608C73.1435 44.1694 72.7635 45.9729 73.3018 48.0928C74.0935 51.2569 72.9218 54.1362 70.1352 55.8131C68.1718 56.9838 67.1268 58.5342 66.7785 60.8124C66.2402 64.2296 63.9285 66.3495 60.4452 66.8241C58.5452 67.0772 57.1518 67.9948 56.1385 69.6401C54.0802 72.994 51.3885 74.1014 47.5568 73.1839C45.7518 72.7409 44.1368 73.0573 42.6485 74.1647C42.3635 74.3862 42.0468 74.6077 41.7302 74.7975C39.2285 76.4112 36.7268 76.4112 34.2252 74.7343C33.0852 73.9749 32.0402 73.0573 30.6152 73.0257C29.8235 73.0257 28.9685 73.0573 28.2085 73.2471C24.7252 74.0382 21.8752 72.8991 20.0385 69.83C18.9935 68.0581 17.5052 67.0772 15.4785 66.8241C12.0585 66.3811 9.68352 63.9764 9.24018 60.5592C8.98685 58.5659 8.03685 57.1104 6.32685 56.0979C3.12852 54.1678 1.95685 51.4151 2.87518 47.7764C3.35018 45.8463 3.00185 44.1377 1.79852 42.5557C-0.544818 39.4233 -0.544818 36.7655 1.79852 33.633C2.97018 32.051 3.31852 30.4057 2.87518 28.4756C1.98852 24.7736 3.09685 22.0525 6.35852 20.0908C8.06852 19.0467 9.01852 17.5912 9.27185 15.6295C9.71518 12.2123 12.0902 9.8076 15.5102 9.36463C17.5368 9.11151 19.0252 8.09901 20.0702 6.32713C21.5902 3.70095 23.5852 2.49861 26.2452 2.43533Z" fill="#DBFF00"/>
<path d="M26.2452 2.43533C27.1952 2.43533 27.7968 2.53025 28.5252 2.72009C30.3302 3.16306 31.9135 2.78337 33.4335 1.77087C34.4152 1.10642 35.5235 0.536887 36.6635 0.220481C38.7218 -0.349051 40.6535 0.220481 42.3318 1.51775C44.0735 2.84666 45.9102 3.1947 48.0318 2.62517C51.2618 1.80251 54.0485 2.94158 55.8218 5.9158C56.9935 7.87752 58.5452 8.95331 60.8252 9.30135C64.2452 9.8076 66.3985 12.149 66.8418 15.5978C67.0952 17.5279 68.0452 18.9518 69.6918 19.9326C72.9535 21.8943 74.0935 24.6787 73.2068 28.3174C72.7318 30.1842 73.1435 31.8295 74.2835 33.3483C75.2652 34.6139 75.8985 36.0061 76.0252 37.6198C76.1518 39.4233 75.5502 41.0369 74.4735 42.4608C73.1435 44.1694 72.7635 45.9729 73.3018 48.0928C74.0935 51.2569 72.9218 54.1362 70.1352 55.8131C68.1718 56.9838 67.1268 58.5342 66.7785 60.8124C66.2402 64.2296 63.9285 66.3495 60.4452 66.8241C58.5452 67.0772 57.1518 67.9948 56.1385 69.6401C54.0802 72.994 51.3885 74.1014 47.5568 73.1839C45.7518 72.7409 44.1368 73.0573 42.6485 74.1647C42.3635 74.3862 42.0468 74.6077 41.7302 74.7975C39.2285 76.4112 36.7268 76.4112 34.2252 74.7343C33.0852 73.9749 32.0402 73.0573 30.6152 73.0257C29.8235 73.0257 28.9685 73.0573 28.2085 73.2471C24.7252 74.0382 21.8752 72.8991 20.0385 69.83C18.9935 68.0581 17.5052 67.0772 15.4785 66.8241C12.0585 66.3811 9.68352 63.9764 9.24018 60.5592C8.98685 58.5659 8.03685 57.1104 6.32685 56.0979C3.12852 54.1678 1.95685 51.4151 2.87518 47.7764C3.35018 45.8463 3.00185 44.1377 1.79852 42.5557C-0.544818 39.4233 -0.544818 36.7655 1.79852 33.633C2.97018 32.051 3.31852 30.4057 2.87518 28.4756C1.98852 24.7736 3.09685 22.0525 6.35852 20.0908C8.06852 19.0467 9.01852 17.5912 9.27185 15.6295C9.71518 12.2123 12.0902 9.8076 15.5102 9.36463C17.5368 9.11151 19.0252 8.09901 20.0702 6.32713C21.5902 3.70095 23.5852 2.49861 26.2452 2.43533Z" fill="url(#paint1_radial_3_59)"/>
<path d="M58.3275 27.6186L53.1895 22.4578C52.8013 22.0696 52.1162 22.0696 51.728 22.4578L32.2722 42.0735L24.3483 34.0811C24.1428 33.8756 23.8916 33.7842 23.6176 33.7842C23.3435 33.7842 23.0923 33.8984 22.8868 34.0811L17.7488 39.2419C17.3606 39.6301 17.3606 40.2923 17.7488 40.6805L32.2722 55.2952L58.3275 29.0573C58.5102 28.8746 58.6243 28.6006 58.6243 28.3265C58.6243 28.0525 58.5102 27.8013 58.3275 27.5958V27.6186Z" fill="#2D00F7"/>
<path d="M38.2627 1.58333C39.3077 1.58333 40.3527 1.99499 41.366 2.78666C42.8544 3.92666 44.4377 4.49666 46.1477 4.49666C46.876 4.49666 47.6677 4.40166 48.4277 4.17999C48.966 4.05333 49.5044 3.95833 50.011 3.95833C51.8794 3.95833 53.3677 4.90833 54.476 6.74499C55.901 9.15166 57.8644 10.45 60.6194 10.8933C63.2794 11.2733 64.926 13.0467 65.306 15.8333C65.6227 18.24 66.826 20.0767 68.916 21.3117C71.576 22.9267 72.431 24.9533 71.7027 27.9617C71.1327 30.2417 71.576 32.3633 73.0644 34.3583C73.9194 35.4667 74.3944 36.575 74.4894 37.7783C74.5844 39.1083 74.1727 40.3433 73.2544 41.5467C71.6077 43.6683 71.1327 45.9483 71.7977 48.545C72.431 51.0467 71.5444 53.2 69.3594 54.53C66.9844 55.955 65.6544 57.8867 65.2427 60.6417C64.7044 64.03 62.2344 65.075 60.271 65.3283C57.9277 65.645 56.091 66.8483 54.8244 68.875C53.4944 71.0283 52.006 71.9783 50.011 71.9783C49.4094 71.9783 48.7127 71.8833 47.9844 71.725C47.351 71.5667 46.686 71.4717 46.0844 71.4717C44.5327 71.4717 43.076 71.9783 41.7144 72.9917C41.4927 73.1817 41.2077 73.3717 40.9227 73.53C39.941 74.1633 38.991 74.48 38.0727 74.48C37.1544 74.48 36.1727 74.1633 35.1594 73.4667L34.621 73.1183C33.576 72.39 32.3727 71.535 30.6627 71.5033C29.8077 71.5033 28.826 71.535 27.9077 71.7567C27.306 71.8833 26.736 71.9467 26.1977 71.9467C24.171 71.9467 22.6194 70.9967 21.4477 69.065C20.1494 66.88 18.2177 65.6133 15.716 65.2967C13.0244 64.9483 11.1877 63.1117 10.8394 60.3883C10.5227 57.9183 9.2877 56.0183 7.16604 54.7833C4.5377 53.2 3.6827 51.1733 4.4427 48.1967C5.04437 45.79 4.56937 43.605 3.08104 41.6417C1.18104 39.0767 1.18104 37.1767 3.08104 34.6117C4.5377 32.6483 4.98104 30.5267 4.41104 28.1517C3.6827 25.08 4.50604 23.085 7.16604 21.5017C9.2877 20.2033 10.5227 18.335 10.8394 15.8967C11.1877 13.1733 13.0244 11.3367 15.716 10.9883C18.2177 10.6717 20.1494 9.40499 21.4477 7.18833C22.651 5.09833 24.1394 4.14833 26.261 4.08499C27.0844 4.08499 27.5594 4.17999 28.161 4.33833C28.7944 4.49666 29.396 4.55999 29.9977 4.55999C31.486 4.55999 32.911 4.11666 34.336 3.16666C35.2544 2.53333 36.236 2.08999 37.091 1.83666C37.471 1.74166 37.8827 1.67833 38.2627 1.67833V1.58333ZM38.2627 0.0949936C37.756 0.0949936 37.2177 0.158327 36.6794 0.31666C35.5394 0.633327 34.431 1.20333 33.4494 1.86833C32.341 2.59666 31.2327 3.00833 29.9977 3.00833C29.5227 3.00833 29.0477 2.94499 28.541 2.81833C27.8127 2.62833 27.211 2.53333 26.261 2.53333C23.601 2.59666 21.606 3.79999 20.086 6.42833C19.041 8.20166 17.5527 9.21499 15.526 9.46833C12.106 9.91166 9.73104 12.3183 9.2877 15.7383C9.03437 17.7017 8.08437 19.1583 6.37437 20.2033C3.1127 22.1667 2.00437 24.89 2.89104 28.595C3.33437 30.5267 2.98604 32.1733 1.81437 33.7567C-0.528964 36.8917 -0.528964 39.5517 1.81437 42.6867C3.0177 44.27 3.36604 45.98 2.89104 47.9117C1.9727 51.5533 3.14437 54.3083 6.3427 56.24C8.0527 57.2533 9.0027 58.71 9.25604 60.705C9.69937 64.125 12.0744 66.5317 15.4944 66.975C17.521 67.2283 19.0094 68.21 20.0544 69.9833C21.511 72.4217 23.601 73.6567 26.166 73.6567C26.831 73.6567 27.496 73.5617 28.2244 73.4033C28.9844 73.2133 29.8394 73.1817 30.631 73.1817C32.056 73.1817 33.101 74.1317 34.241 74.8917C35.5077 75.7467 36.7744 76.1583 38.041 76.1583C39.3077 76.1583 40.511 75.7467 41.746 74.955C42.0627 74.765 42.3794 74.5433 42.6644 74.3217C43.7094 73.53 44.8494 73.15 46.0527 73.15C46.5594 73.15 47.066 73.2133 47.5727 73.34C48.4277 73.53 49.2194 73.6567 49.9794 73.6567C52.576 73.6567 54.571 72.4217 56.1544 69.7933C57.1677 68.1467 58.561 67.2283 60.461 66.975C63.9444 66.5 66.256 64.3783 66.7944 60.9583C67.1427 58.6783 68.1877 57.1267 70.151 55.955C72.9377 54.2767 74.1094 51.395 73.3177 48.2283C72.7794 46.1067 73.1594 44.3017 74.4894 42.5917C75.566 41.1667 76.1677 39.5517 76.041 37.7467C75.9144 36.1317 75.281 34.7383 74.2994 33.4717C73.1594 31.9517 72.7477 30.305 73.2227 28.4367C74.1094 24.795 72.9694 22.0083 69.7077 20.045C68.061 19.0633 67.111 17.6383 66.8577 15.7067C66.4144 12.255 64.261 9.91166 60.841 9.40499C58.561 9.05666 57.0094 7.97999 55.8377 6.01666C54.4444 3.67333 52.4177 2.46999 50.0427 2.46999C49.4094 2.46999 48.7444 2.56499 48.0477 2.72333C47.3827 2.91333 46.781 2.97666 46.1794 2.97666C44.8177 2.97666 43.551 2.53333 42.3477 1.61499C41.1127 0.664994 39.7194 0.0949936 38.2627 0.0949936V0.0949936Z" fill="#2D00F7"/>
<rect x="191" y="24" width="105" height="40" rx="20" fill="#03045E"/>
<path d="M217.317 50.192C216.826 50.192 216.384 50.08 215.989 49.856C215.605 49.6213 215.322 49.2587 215.141 48.768L211.797 38.8H214.341L217.045 47.824C217.066 47.8987 217.098 47.952 217.141 47.984C217.194 48.016 217.253 48.032 217.317 48.032C217.381 48.032 217.434 48.016 217.477 47.984C217.53 47.952 217.568 47.8987 217.589 47.824L220.389 38.8H222.821L219.493 48.752C219.322 49.232 219.04 49.5947 218.645 49.84C218.25 50.0747 217.808 50.192 217.317 50.192ZM227.98 50C227.052 50 226.241 49.824 225.548 49.472C224.865 49.1093 224.332 48.6187 223.948 48C223.575 47.3813 223.388 46.688 223.388 45.92C223.388 45.056 223.564 44.304 223.916 43.664C224.268 43.024 224.748 42.528 225.356 42.176C225.964 41.824 226.652 41.648 227.42 41.648C228.337 41.648 229.079 41.84 229.644 42.224C230.22 42.608 230.641 43.1253 230.908 43.776C231.175 44.416 231.308 45.1307 231.308 45.92C231.308 46.0267 231.303 46.1547 231.292 46.304C231.281 46.4427 231.265 46.5493 231.244 46.624H225.724C225.809 46.9547 225.953 47.232 226.156 47.456C226.369 47.68 226.631 47.8507 226.94 47.968C227.26 48.0747 227.617 48.128 228.012 48.128H230.284V50H227.98ZM225.708 45.152H229.116C229.095 44.9493 229.057 44.7627 229.004 44.592C228.951 44.4107 228.876 44.2507 228.78 44.112C228.684 43.9733 228.572 43.856 228.444 43.76C228.316 43.664 228.167 43.5893 227.996 43.536C227.825 43.4827 227.639 43.456 227.436 43.456C227.169 43.456 226.929 43.504 226.716 43.6C226.513 43.696 226.343 43.824 226.204 43.984C226.065 44.144 225.953 44.3253 225.868 44.528C225.793 44.7307 225.74 44.9387 225.708 45.152ZM232.773 50V44.16C232.773 43.4347 232.975 42.8693 233.381 42.464C233.797 42.048 234.367 41.84 235.093 41.84H237.349V43.712H235.477C235.338 43.712 235.215 43.76 235.109 43.856C235.013 43.952 234.965 44.0747 234.965 44.224V50H232.773ZM238.556 50V41.84H240.764V50H238.556ZM239.66 40.864C239.286 40.864 238.961 40.7307 238.684 40.464C238.417 40.1867 238.284 39.8613 238.284 39.488C238.284 39.1147 238.417 38.7947 238.684 38.528C238.961 38.2507 239.286 38.112 239.66 38.112C240.033 38.112 240.353 38.2507 240.62 38.528C240.897 38.7947 241.036 39.1147 241.036 39.488C241.036 39.8613 240.897 40.1867 240.62 40.464C240.353 40.7307 240.033 40.864 239.66 40.864ZM243.365 50V43.712H241.941V41.84H243.365V40.64C243.365 39.9147 243.568 39.3493 243.973 38.944C244.389 38.528 244.96 38.32 245.685 38.32H247.573V40.192H246.069C245.931 40.192 245.808 40.24 245.701 40.336C245.605 40.432 245.557 40.5547 245.557 40.704V41.84H251.285V50H249.077V43.712H245.557V50H243.365ZM250.181 40.816C249.808 40.816 249.483 40.6827 249.205 40.416C248.939 40.1387 248.805 39.8133 248.805 39.44C248.805 39.0667 248.939 38.7467 249.205 38.48C249.483 38.2027 249.808 38.064 250.181 38.064C250.555 38.064 250.875 38.2027 251.141 38.48C251.419 38.7467 251.557 39.0667 251.557 39.44C251.557 39.8133 251.419 40.1387 251.141 40.416C250.875 40.6827 250.555 40.816 250.181 40.816ZM257.465 50C256.537 50 255.726 49.824 255.033 49.472C254.35 49.1093 253.817 48.6187 253.433 48C253.059 47.3813 252.873 46.688 252.873 45.92C252.873 45.056 253.049 44.304 253.401 43.664C253.753 43.024 254.233 42.528 254.841 42.176C255.449 41.824 256.137 41.648 256.905 41.648C257.822 41.648 258.563 41.84 259.129 42.224C259.705 42.608 260.126 43.1253 260.392 43.776C260.659 44.416 260.793 45.1307 260.793 45.92C260.793 46.0267 260.787 46.1547 260.777 46.304C260.766 46.4427 260.75 46.5493 260.729 46.624H255.209C255.294 46.9547 255.438 47.232 255.641 47.456C255.854 47.68 256.115 47.8507 256.424 47.968C256.745 48.0747 257.102 48.128 257.497 48.128H259.769V50H257.465ZM255.193 45.152H258.601C258.579 44.9493 258.542 44.7627 258.489 44.592C258.435 44.4107 258.361 44.2507 258.265 44.112C258.169 43.9733 258.057 43.856 257.929 43.76C257.801 43.664 257.651 43.5893 257.481 43.536C257.31 43.4827 257.123 43.456 256.921 43.456C256.654 43.456 256.414 43.504 256.201 43.6C255.998 43.696 255.827 43.824 255.689 43.984C255.55 44.144 255.438 44.3253 255.353 44.528C255.278 44.7307 255.225 44.9387 255.193 45.152ZM266.161 50.192C265.478 50.192 264.865 50.0853 264.321 49.872C263.788 49.648 263.34 49.3387 262.977 48.944C262.614 48.5387 262.337 48.0693 262.145 47.536C261.953 46.992 261.857 46.4 261.857 45.76C261.857 44.9493 262.017 44.24 262.337 43.632C262.668 43.0133 263.126 42.528 263.713 42.176C264.31 41.824 265.004 41.648 265.793 41.648C266.134 41.648 266.46 41.696 266.769 41.792C267.089 41.888 267.377 42.0267 267.633 42.208C267.889 42.3893 268.097 42.6027 268.257 42.848H268.273V38.32H270.465V45.76C270.465 46.656 270.289 47.44 269.937 48.112C269.585 48.7733 269.089 49.2853 268.449 49.648C267.809 50.0107 267.046 50.192 266.161 50.192ZM266.161 48.32C266.598 48.32 266.972 48.2133 267.281 48C267.59 47.7867 267.825 47.4987 267.985 47.136C268.156 46.7733 268.241 46.368 268.241 45.92C268.241 45.472 268.156 45.0667 267.985 44.704C267.825 44.3413 267.59 44.0533 267.281 43.84C266.972 43.6267 266.598 43.52 266.161 43.52C265.734 43.52 265.361 43.6267 265.041 43.84C264.732 44.0533 264.492 44.3413 264.321 44.704C264.161 45.0667 264.081 45.472 264.081 45.92C264.081 46.368 264.161 46.7733 264.321 47.136C264.492 47.4987 264.732 47.7867 265.041 48C265.361 48.2133 265.734 48.32 266.161 48.32ZM272.622 46.128V38.8H274.814V46.128H272.622ZM273.71 50.192C273.305 50.192 272.953 50.048 272.654 49.76C272.366 49.4613 272.222 49.1093 272.222 48.704C272.222 48.2987 272.366 47.952 272.654 47.664C272.953 47.3653 273.305 47.216 273.71 47.216C274.115 47.216 274.462 47.3653 274.75 47.664C275.049 47.952 275.198 48.2987 275.198 48.704C275.198 48.9707 275.129 49.2213 274.99 49.456C274.862 49.68 274.686 49.8613 274.462 50C274.238 50.128 273.987 50.192 273.71 50.192Z" fill="white"/>
<path d="M238.933 63C244.742 69.8287 250.834 79.7313 246.125 85.164C239.052 93.3261 269.676 72.1671 272 63H238.933Z" fill="#03045E"/>
<defs>
<radialGradient id="paint0_radial_3_59" cx="0" cy="0" r="1" gradientUnits="userSpaceOnUse" gradientTransform="translate(200.794 144.307) rotate(90) scale(56.0942 56.0942)">
<stop offset="0.666667" stop-color="#DBFF00" stop-opacity="0"/>
<stop offset="1" stop-color="#D0F200"/>
</radialGradient>
<radialGradient id="paint1_radial_3_59" cx="0" cy="0" r="1" gradientUnits="userSpaceOnUse" gradientTransform="translate(14.291 9.5) rotate(53.1301) scale(71.25 71.2508)">
<stop offset="0.428121" stop-color="#DDFF00"/>
<stop offset="1" stop-color="#98DC00"/>
</radialGradient>
</defs>
</svg>
