<svg width="448" height="226" viewBox="0 0 448 226" fill="none" xmlns="http://www.w3.org/2000/svg">
<ellipse cx="224" cy="210" rx="224" ry="16" fill="#F3F4F6"/>
<path d="M254.946 208.249C254.482 212.118 260.333 212.741 262.572 213.205C270.549 214.899 278.654 213.524 286.632 212.421C287.543 212.213 288.438 212.022 289.35 211.878C297.663 210.407 305.816 212.997 314.113 213.285C321.004 213.524 327.942 213.412 334.816 212.373C335.903 212.213 337.806 212.038 338.509 210.487C339.213 208.936 338.477 207.753 337.47 207.226C332.562 204.668 327.239 204.668 322.107 204.396C311.683 203.852 301.388 207.465 290.996 206.554C288.694 206.346 286.392 205.819 284.106 205.291C283.355 205.115 282.587 204.955 281.804 204.812C277.439 203.964 272.979 203.82 268.567 204.108C266.313 204.252 264.074 204.492 261.82 204.844C259.966 205.131 257.504 205.163 255.937 206.426C255.346 206.906 255.026 207.545 254.946 208.233V208.249Z" fill="#E5E7EB"/>
<path d="M308.662 204.492C308.982 202.813 309.285 201.119 309.621 199.44C309.781 198.593 309.941 197.762 310.101 196.914C310.26 196.067 310.42 195.236 310.58 194.388C311.843 187.754 312.85 182.174 313.73 176.499C314.209 173.414 314.641 170.344 314.993 167.419C315.168 165.9 315.328 164.381 315.488 162.894C315.52 162.702 315.52 162.479 315.52 162.319C315.664 161.104 315.744 159.873 315.824 158.674V158.53C315.936 157.059 316.607 156.132 317.566 156.1C317.902 156.068 318.27 156.244 318.574 156.563C319.085 157.075 319.357 157.842 319.309 158.578C319.149 160.704 319.005 162.431 318.845 164.029C318.686 165.708 318.494 167.482 318.238 169.433C316.991 179.537 315.088 189.592 313.25 199.312C313.106 200.064 312.962 200.815 312.818 201.582C313.218 201.359 313.634 201.183 314.065 201.023C315.984 200.352 318.27 200.479 320.012 201.535C321.723 202.574 323.354 204.988 322.283 206.986C321.739 207.993 320.508 208.489 319.453 208.761C318.334 209.048 317.151 209.096 316 209C314.897 208.888 313.778 208.681 312.69 208.457C310.868 207.945 307.974 207.514 308.662 204.508V204.492Z" fill="#2D00F7"/>
<path d="M285.161 204.796L284.202 199.76L283.259 194.724C282.188 189.033 281.069 182.926 280.126 176.883C279.63 173.765 279.23 170.712 278.863 167.818C278.687 166.379 278.527 164.861 278.367 163.326C278.367 163.022 278.335 162.862 278.319 162.75L278.271 162.335C278.239 162.031 278.207 161.727 278.191 161.439V161.248C278.111 160.496 278.063 159.745 277.999 158.977L277.967 158.786C277.823 157.475 277.168 156.643 276.257 156.595H276.209C275.889 156.595 275.537 156.755 275.234 157.059C274.738 157.555 274.466 158.306 274.53 159.009C274.69 161.088 274.834 162.798 274.994 164.429C275.154 166.06 275.345 167.834 275.601 169.817C276.816 179.808 278.703 189.768 280.541 199.408L280.589 199.664C280.733 200.383 280.861 201.119 281.005 201.838C280.605 201.614 280.189 201.439 279.758 201.279C277.839 200.607 275.569 200.735 273.827 201.79C272.116 202.829 270.501 205.227 271.557 207.226C272.1 208.233 273.331 208.729 274.386 209C275.505 209.288 276.672 209.336 277.823 209.224C278.927 209.112 280.03 208.904 281.133 208.681C282.028 208.489 286.041 207.769 285.177 204.748V204.796H285.161Z" fill="#2D00F7"/>
<path d="M350.032 113.489C350.256 113.089 350.607 112.817 351.071 112.721C351.487 112.641 351.95 112.721 352.334 112.913C354.812 114.224 357.242 115.919 359.576 117.933C363.365 121.226 366.626 125.383 369.008 129.971C371.438 134.623 372.957 139.659 373.532 144.903C373.532 145.079 373.532 145.239 373.485 145.415C375.371 146.054 377.066 147.509 377.865 149.283C378.888 151.538 378.68 154.335 377.018 156.238C375.467 158.028 372.877 158.508 370.799 157.437C369.04 156.541 368.145 154.623 367.889 152.737C367.601 152.737 367.33 152.673 367.074 152.561C366.498 152.337 365.987 151.985 365.683 151.41C365.363 150.802 365.411 150.147 365.603 149.491C365.955 148.228 366.85 147.269 367.889 146.534C368.609 146.006 369.408 145.59 370.223 145.223C370.191 145.127 370.175 145.015 370.175 144.919L370.143 144.695V144.631C370.143 144.551 370.111 144.471 370.111 144.391C370.111 144.311 370.111 144.216 370.063 144.136L369.903 143.08C369.776 142.345 369.664 141.738 369.504 141.114C369.2 139.723 368.832 138.38 368.417 137.149C368.209 136.574 368.017 135.998 367.793 135.423C367.793 135.375 367.761 135.343 367.745 135.295C367.713 135.247 367.697 135.199 367.681 135.135L367.553 134.799C367.489 134.671 367.426 134.512 367.378 134.384C367.33 134.256 367.266 134.128 367.202 134C366.722 132.913 366.179 131.81 365.571 130.691C364.948 129.604 364.308 128.564 363.637 127.557C363.461 127.301 363.285 127.046 363.093 126.79L363.045 126.71C363.045 126.71 362.933 126.582 362.885 126.486C362.837 126.438 362.805 126.374 362.741 126.262C362.422 125.847 362.038 125.351 361.622 124.839C360.056 122.953 358.329 121.226 356.49 119.692L356.347 119.564C356.347 119.564 356.283 119.516 356.235 119.468C356.235 119.468 356.107 119.356 356.027 119.308L355.963 119.26C355.835 119.164 355.723 119.068 355.595 118.988L355.259 118.748C354.812 118.413 354.316 118.061 353.789 117.693C352.766 117.006 351.694 116.366 350.623 115.807L349.92 115.423H350.176C350.048 115.279 349.968 115.103 349.904 114.912C349.776 114.448 349.824 113.92 350.048 113.489H350.032V113.489Z" fill="#2D00F7"/>
<path d="M222.627 114.169L222.406 113.789L222.327 113.852C221.807 113.361 221.034 113.235 220.45 113.583C218.085 114.707 215.94 115.563 213.921 116.212C211.255 116.972 207.738 117.811 204.284 117.811H202.36C197.455 117.558 192.691 116.117 188.449 113.599C187.834 113.235 187.218 112.886 186.603 112.49L186.43 112.38C186.162 112.205 185.909 112.047 185.641 111.857C185.578 111.809 185.499 111.762 185.436 111.714C185.357 111.651 185.279 111.604 185.2 111.556L185.042 111.445L181.698 112.997L181.746 113.266C181.809 113.726 182.045 114.09 182.376 114.327C184.679 115.99 187.124 117.447 189.616 118.619C193.669 120.678 198.243 121.707 203.038 121.707C209.016 121.707 215.356 120.123 221.57 116.988C222.548 116.402 223.242 115.325 222.611 114.217L222.627 114.169Z" fill="#2D00F7"/>
<path d="M164.049 78.4427C148.498 54.1501 140.785 43.0015 137 37.9181C140.328 44.981 147.646 58.8693 160.232 80.7231C178.528 112.522 187.581 125.666 189.095 126.616C190.089 126.743 191.382 126.268 192.076 125.492C192.439 125.096 192.565 124.684 192.471 124.288C191.934 122.958 179.679 102.862 164.065 78.4427H164.049Z" fill="#03045E"/>
<path d="M186.588 117.099C186.067 118.271 185.279 119.316 184.19 120.076C183.086 120.994 181.777 121.406 180.421 121.438C176.793 121.723 174.096 118.857 172.74 115.895C171.573 112.918 172.251 109.418 174.553 106.948C176.509 105.079 179.474 103.891 181.998 105.158C182.976 105.538 183.891 106.156 184.632 106.948C187.155 109.577 188.054 113.726 186.588 117.115V117.099Z" fill="#2D00F7"/>
<path d="M290.044 30.272C250.451 30.272 218.368 62.3706 218.368 101.948C218.368 141.525 250.467 173.624 290.044 173.624C329.621 173.624 361.72 141.525 361.72 101.948C361.72 62.3706 329.637 30.272 290.044 30.272Z" fill="#DBFF00"/>
<path d="M290.044 30.272C250.451 30.272 218.368 62.3706 218.368 101.948C218.368 141.525 250.467 173.624 290.044 173.624C329.621 173.624 361.72 141.525 361.72 101.948C361.72 62.3706 329.637 30.272 290.044 30.272Z" fill="url(#paint0_radial_2_25)"/>
<path d="M234.582 94.1748C233.278 88.4087 233.309 85.9892 233.356 81.1971C233.592 78.6676 235.195 76.0123 236.483 75.1796C237.96 74.3626 237.928 75.9024 237.897 78.0391C245.344 63.1918 258.353 52.8536 273.578 49.6641C277.396 48.9414 281.355 48.7372 285.33 49.0671C297.836 50.1355 310.61 56.3887 318.686 65.4542C320.697 67.7167 322.991 70.2934 321.702 72.163C319.911 74.7397 316.329 73.2785 314.726 71.1732C305.331 58.714 289.556 52.0837 274.568 54.299C269.933 54.9746 262.831 57.0171 255.258 62.8775C250.403 66.6326 247.214 71.8488 243.506 76.6094C243.459 76.6565 242.893 77.4578 241.919 79.2175L242.202 78.9818L242.893 78.4319C243.113 78.2591 243.71 77.8035 244.464 77.7406C246.648 77.5364 247.245 80.7729 245.549 83.601C245.391 83.8681 244.936 84.5594 244.229 85.125C239.39 89.0215 237.363 91.2211 234.566 94.2377V94.1748H234.582ZM289.054 96.4687C282.455 91.5039 284.089 80.6315 293.767 79.0761C299.329 78.4633 304.42 82.3755 305.095 87.7803C306.164 96.343 296.124 101.764 289.054 96.4687ZM254.001 104.906C247.512 101.355 247.968 89.21 256.531 86.2405C260.899 84.9993 265.109 87.7174 266.319 92.588C268.393 100.837 260.679 108.567 254.001 104.922V104.906ZM328.05 117.459C327.5 118.229 323.195 122.063 322.111 114.961C318.654 120.303 300.052 146.573 271.897 140.838C251.393 136.659 235.257 120.256 241.354 116.14C241.746 115.935 243.176 115.48 244.732 117.569C255.871 132.495 272.918 135.418 281.245 134.805C302.283 133.234 314.836 112.542 315.37 111.662C315.418 111.567 315.48 111.473 315.528 111.395C315.653 111.19 315.826 110.923 315.967 110.656L314.396 111.222C313.344 111.583 312.354 111.52 311.427 111.08C308.929 109.839 308.19 106.131 310.798 103.853C311.113 103.57 311.647 103.13 326.07 98.3541C327.94 105.173 328.301 108.127 329.008 114.003C329.039 114.49 329.087 115.982 328.05 117.459V117.459Z" fill="#2D00F7"/>
<path d="M336.934 0.731445C342.742 7.56013 348.835 17.4628 344.126 22.8954C337.053 31.0575 367.677 9.8985 370.001 0.731445H336.934Z" fill="#03045E"/>
<defs>
<radialGradient id="paint0_radial_2_25" cx="0" cy="0" r="1" gradientUnits="userSpaceOnUse" gradientTransform="translate(290.044 101.948) rotate(90) scale(71.6759 71.6759)">
<stop offset="0.666667" stop-color="#DBFF00" stop-opacity="0"/>
<stop offset="1" stop-color="#D0F200"/>
</radialGradient>
</defs>
</svg>
