<svg width="39" height="48" viewBox="0 0 39 48" fill="none" xmlns="http://www.w3.org/2000/svg">
<path d="M35.302 9.23096C36.2408 9.77502 37.1796 10.3191 38.129 10.8525L38.1183 10.8418C38.3104 10.9485 38.3957 11.0765 38.3957 11.3112V32.9041C38.3957 33.1282 38.321 33.2455 38.129 33.3522C36.977 34.0189 35.825 34.6829 34.6731 35.3469C33.5207 36.0111 32.3683 36.6753 31.2159 37.3422L29.5303 35.6566C31.6319 34.4297 33.7336 33.2135 35.846 31.9973C36.0167 31.9013 36.0807 31.7946 36.0807 31.6026V12.5808C36.0807 12.4634 35.9847 12.2927 35.8886 12.2394C34.6169 11.4818 33.33 10.7394 32.0471 9.99938C31.8125 9.86407 31.5781 9.72883 31.3439 9.5936C29.3649 8.44673 27.3858 7.30252 25.4068 6.15832C23.4279 5.01414 21.4489 3.86996 19.4699 2.72312C19.2779 2.61644 19.1285 2.60577 18.9258 2.72312C18.4137 3.02184 17.9016 3.3179 17.3895 3.61396C16.8775 3.91 16.3654 4.20604 15.8533 4.50475C15.0865 4.94925 14.3195 5.39407 13.5521 5.83905C9.89934 7.95724 6.24055 10.0789 2.58176 12.186C2.34706 12.3247 2.29372 12.4634 2.29372 12.7088V31.5706C2.29372 31.8053 2.35773 31.9226 2.56043 32.04C3.87069 32.7878 5.17684 33.5438 6.48398 34.3003C7.28417 34.7634 8.08472 35.2268 8.88681 35.6886L7.2012 37.3742C5.29313 36.2763 3.37442 35.1677 1.45569 34.0591L1.45091 34.0563C1.3807 34.0157 1.31017 33.9747 1.23937 33.9336C0.901391 33.7373 0.55738 33.5375 0.213369 33.3522C0.00975148 33.2402 0.0101612 33.0797 0.010624 32.8983C0.0106462 32.8896 0.0106684 32.8809 0.0106684 32.8721C0.0213369 25.8736 0.0320053 18.8645 0 11.8553C0 11.2259 0.192032 10.8951 0.746791 10.5964C2.50628 9.61142 4.25517 8.59461 6.00092 7.57962C6.7321 7.15451 7.46273 6.72972 8.19336 6.30772C8.8982 5.89999 9.60397 5.49132 10.3104 5.08227C11.9884 4.11064 13.6702 3.13686 15.3519 2.16836C15.5634 2.04672 15.7745 1.92541 15.9854 1.80425C16.9766 1.23472 17.9619 0.66862 18.9472 0.0880146C19.1499 -0.0293382 19.2885 -0.0293382 19.4912 0.0880146C20.7448 0.813462 21.9983 1.53624 23.2518 2.25902C24.5054 2.98182 25.7589 3.70461 27.0125 4.43007L35.302 9.23096Z" fill="#979DAC"/>
<path d="M13.6236 30.9838L15.9173 28.6901V23.4626H24.4094V20.6674H15.928C15.928 20.6049 15.9207 20.5571 15.9146 20.5175C15.9103 20.4894 15.9067 20.4655 15.9067 20.4434V9.87098C15.9067 9.75362 16.0133 9.60427 16.1094 9.54025C17.1015 8.97483 18.1044 8.43074 19.1072 7.88664C19.2032 7.8333 19.3739 7.84397 19.4699 7.90798C20.3945 8.45562 21.3191 9.01275 22.2437 9.56987C22.706 9.84844 23.1683 10.127 23.6306 10.4044C23.7895 10.4998 23.9499 10.5951 24.1113 10.691C24.383 10.8525 24.6578 11.0159 24.9322 11.1832C25.1373 10.8708 25.3364 10.5644 25.5338 10.2606L25.5344 10.2597C25.7883 9.86904 26.0398 9.48201 26.2977 9.09218C26.271 9.07084 26.2524 9.05217 26.2377 9.0375C26.223 9.02283 26.2124 9.01217 26.2017 9.00683C23.94 7.67328 21.6889 6.35039 19.4272 5.0275C19.3526 4.98483 19.2032 4.9955 19.1179 5.03817C18.243 5.55025 17.3682 6.065 16.4934 6.57975C15.6186 7.09451 14.7438 7.60926 13.869 8.12135C13.6769 8.2387 13.6236 8.35606 13.6236 8.56943V30.9838Z" fill="#979DAC"/>
<path d="M34.6724 14.4371C33.6963 13.8183 32.7175 13.1995 31.7386 12.5808C30.7598 11.962 29.781 11.3432 28.8048 10.7245C28.3249 10.4259 27.8444 10.1269 27.3539 9.81763L26.127 11.77C26.223 11.8446 26.3084 11.9086 26.3937 11.962C26.6676 12.1362 26.9402 12.3117 27.2128 12.4871C27.7581 12.838 28.3034 13.1889 28.8581 13.5303C29.0715 13.6583 29.1569 13.8076 29.1569 14.0637V33.6616C29.1569 33.7789 29.1569 33.907 29.1782 34.0777C29.3785 33.962 29.5744 33.8478 29.7674 33.7353C30.3039 33.4224 30.8182 33.1226 31.3439 32.8401C31.5999 32.7014 31.6533 32.5307 31.6533 32.264V15.1519L34.8858 17.3496V14.6824C34.8858 14.5971 34.7685 14.4904 34.6831 14.4371H34.6724Z" fill="#979DAC"/>
<path d="M19.2459 29.885L10.7965 38.3344L12.6848 40.2227L17.923 34.9845V48H20.5794V34.9418L25.839 40.2013L27.7059 38.345L19.2459 29.885Z" fill="#979DAC"/>
<path d="M6.92382 22.8651C6.74246 22.1504 6.55043 21.4462 6.31572 20.7314H6.29438V31.8906C6.13942 31.8008 5.98985 31.7109 5.84334 31.6228C5.48555 31.4078 5.14585 31.2037 4.79013 31.0372C4.35273 30.8345 4.26738 30.5464 4.26738 30.0983C4.27805 25.0095 4.27805 19.9313 4.27805 14.8531C4.27805 14.6184 4.33139 14.4691 4.55543 14.3517C4.98347 14.1189 5.40094 13.8756 5.83016 13.6253C6.01072 13.5201 6.19335 13.4136 6.37973 13.3062L9.03617 22.3851H9.10018V11.6099C9.10018 11.3432 9.1642 11.1832 9.42024 11.0445C9.99812 10.7426 10.5551 10.4129 11.1306 10.0721C11.2669 9.99139 11.4043 9.91002 11.5433 9.8283V33.0428L10.3591 34.227L9.975 34.003C9.87898 33.9496 9.81497 33.811 9.78296 33.7043C9.5856 32.9628 9.39091 32.2241 9.19622 31.4853C9.00151 30.7465 8.80681 30.0077 8.60944 29.2662C8.32689 28.2 8.047 27.1337 7.76711 26.0675L7.76665 26.0658C7.4866 24.9989 7.20654 23.932 6.92382 22.8651Z" fill="#979DAC"/>
</svg>
