<svg width="24" height="24" viewBox="0 0 24 24" fill="none" xmlns="http://www.w3.org/2000/svg">
<path d="M12 0C18.628 0 24 5.37305 24 12C24 18.628 18.628 24 12 24C5.37305 24 0 18.6275 0 12C0 5.37305 5.37305 0 12 0Z" fill="#2D00F7"/>
<g clip-path="url(#clip0_297_128)">
<path d="M8.04277 15.0723C7.69558 15.0723 7.39033 14.9931 7.12936 14.837C6.86606 14.6739 6.66333 14.4618 6.51654 14.1985C6.37207 13.9305 6.2975 13.637 6.2975 13.3177V10.6101C6.2975 10.5099 6.27187 10.4167 6.22294 10.3328C6.17401 10.2489 6.10643 10.1814 6.02255 10.1324C5.93867 10.0812 5.84546 10.0579 5.74526 10.0579C5.64507 10.0579 5.55186 10.0835 5.46798 10.1324C5.38876 10.1837 5.32584 10.2489 5.27458 10.3328C5.22332 10.4167 5.20002 10.5099 5.20002 10.6101V14.9721H4V10.7523C4 10.4284 4.07223 10.1348 4.21903 9.87147C4.3635 9.60816 4.56855 9.39845 4.83186 9.24233C5.09516 9.07922 5.40041 9 5.74526 9C6.09012 9 6.40469 9.08155 6.66799 9.24233C6.9313 9.39845 7.13402 9.60816 7.28082 9.87147C7.42529 10.1348 7.49985 10.4284 7.49985 10.7523V13.4622C7.49985 13.5624 7.52548 13.6556 7.57441 13.7395C7.62568 13.8234 7.68859 13.8909 7.76781 13.9399C7.8517 13.9911 7.9449 14.0144 8.0451 14.0144C8.1453 14.0144 8.2385 13.9888 8.32238 13.9399C8.40627 13.8886 8.47384 13.8234 8.52278 13.7395C8.57404 13.6556 8.59734 13.5624 8.59734 13.4622V9.1002H9.79735V13.3201C9.79735 13.6393 9.72512 13.9329 9.57832 14.2008C9.43386 14.4641 9.2288 14.6762 8.9655 14.8393C8.7022 14.9954 8.39462 15.0746 8.04277 15.0746V15.0723Z" fill="white"/>
<path d="M10.4963 14.9721V10.8128C10.4963 10.4936 10.5709 10.207 10.7224 9.94836C10.8785 9.69205 11.0859 9.487 11.3422 9.33554C11.6055 9.17942 11.8921 9.1002 12.2067 9.1002H14.3294V10.1581H12.3418C12.1624 10.1581 12.0086 10.2233 11.8804 10.3515C11.7569 10.4796 11.6964 10.6334 11.6964 10.8128V11.7612H14.0451V12.8191H11.6964V14.9744H10.4963V14.9721Z" fill="white"/>
<path d="M18.4095 14.9721C18.0623 14.9721 17.757 14.8929 17.496 14.7368C17.2327 14.5737 17.03 14.3616 16.8832 14.0983C16.7388 13.8304 16.6642 13.5368 16.6642 13.2175V10.1581H15.0284V9.1002H19.5V10.1581H17.8642V13.362C17.8642 13.5135 17.9178 13.6439 18.0227 13.7558C18.1298 13.863 18.258 13.9142 18.4095 13.9142H18.8289V14.9721H18.4095Z" fill="white"/>
</g>
<path d="M12 0C5.37231 0 0 5.37231 0 12C0 18.6277 5.37231 24 12 24C18.6277 24 24 18.6277 24 12C24 5.37231 18.6277 0 12 0ZM19.8803 20.436C18.972 22.0578 17.2412 23.0658 15.3609 23.0658H8.63908C6.75877 23.0658 5.028 22.0588 4.11969 20.436L0.688615 14.4582C-0.168 12.9286 -0.168 11.0723 0.688615 9.54277L4.11969 3.56492C5.028 1.94308 6.75877 0.935077 8.63908 0.935077H15.3609C17.2412 0.935077 18.972 1.94215 19.8803 3.56492L23.3114 9.54277C24.168 11.0723 24.168 12.9286 23.3114 14.4582L19.8803 20.436Z" fill="white"/>
<defs>
<clipPath id="clip0_297_128">
<rect width="15.5" height="6.07231" fill="white" transform="translate(4 9)"/>
</clipPath>
</defs>
</svg>
