<svg width="24" height="24" viewBox="0 0 24 24" fill="none" xmlns="http://www.w3.org/2000/svg">
<path d="M24 12C24 18.627 18.627 24 12 24C5.37295 24 0 18.627 0 12C0 5.37295 5.37295 0 12 0C18.6284 0 24 5.37295 24 12Z" fill="#2081E2"/>
<path d="M19.8347 14.0837V13.3106C19.8347 13.2391 19.7657 13.1874 19.6978 13.2071L16.0473 14.2624C16.0276 14.2674 16.0103 14.2784 15.9967 14.2932C15.6058 14.7251 15.2735 15.0149 15.1854 15.0917L15.1793 15.0971C14.9525 15.2894 14.6714 15.3942 14.3755 15.3942H13.0538V14.0467H14.1042C14.1314 14.0467 14.1573 14.0368 14.177 14.0196L14.3126 13.895C14.3705 13.842 14.4396 13.7779 14.5222 13.6953C14.5292 13.6883 14.5363 13.6812 14.5435 13.674C14.5869 13.6307 14.6333 13.5845 14.6788 13.5338C14.733 13.4808 14.786 13.4216 14.8353 13.3637C14.9179 13.2749 14.9968 13.1824 15.0795 13.085C15.1386 13.0209 15.1929 12.9482 15.2459 12.8754C15.3051 12.8064 15.363 12.7287 15.4173 12.6547C15.4375 12.6251 15.4589 12.5951 15.4809 12.5644C15.5018 12.5352 15.5232 12.5054 15.5442 12.4747C15.5837 12.4156 15.6232 12.3527 15.6564 12.2935C15.76 12.1332 15.8476 11.9618 15.9215 11.7905C15.9555 11.7171 15.9826 11.6398 16.009 11.5647C16.0123 11.5553 16.0156 11.5459 16.0189 11.5365C16.0485 11.449 16.0732 11.3664 16.0917 11.2788C16.136 11.0729 16.1459 10.8683 16.1262 10.6636C16.1212 10.5995 16.1163 10.5366 16.1015 10.4775V10.4676C16.0966 10.4257 16.0867 10.3788 16.0732 10.3357C16.0288 10.1359 15.9597 9.93621 15.8722 9.74018C15.8426 9.66744 15.8081 9.59347 15.7748 9.52567C15.6959 9.37896 15.6133 9.23222 15.5196 9.09045C15.5008 9.06051 15.48 9.03017 15.4593 8.99988C15.4433 8.97655 15.4274 8.95325 15.4123 8.93018C15.353 8.83866 15.2863 8.75044 15.2215 8.66482C15.2069 8.64547 15.1924 8.62626 15.1781 8.60717C15.1399 8.55699 15.098 8.50681 15.0559 8.45631C15.0328 8.42863 15.0097 8.40084 14.987 8.3729C14.9229 8.29524 14.86 8.22127 14.7959 8.14853C14.5666 7.88962 14.3262 7.65538 14.1116 7.45565C14.0722 7.41619 14.029 7.37673 13.9846 7.33853C13.8182 7.18687 13.6666 7.05494 13.5396 6.95263C13.5014 6.92328 13.4672 6.89436 13.4353 6.86744C13.4137 6.84913 13.3931 6.83175 13.3731 6.81578C13.3346 6.78709 13.3012 6.76164 13.2732 6.74027C13.2554 6.72674 13.2398 6.71485 13.2264 6.70481C13.2166 6.69742 13.2055 6.69249 13.1944 6.68878L13.0538 6.64934V5.48549C13.0538 5.29562 12.9774 5.12549 12.8553 5.00095C12.7333 4.87644 12.5631 4.8 12.3757 4.8C12.0009 4.8 11.6976 5.10698 11.6976 5.48549V6.26959L11.6274 6.24989L11.4363 6.19562L11.2624 6.14755L11.2608 6.14709L11.2575 6.1463H11.2538L9.9346 5.78878C9.87666 5.77274 9.82734 5.83562 9.85694 5.88864L10.0678 6.27823C10.0797 6.30817 10.0949 6.33811 10.1105 6.36888C10.1206 6.3888 10.1308 6.40906 10.1405 6.42989C10.175 6.49891 10.2095 6.57165 10.2428 6.6444C10.2724 6.7085 10.302 6.77138 10.3365 6.84043C10.351 6.8729 10.3658 6.90576 10.3808 6.93908C10.4359 7.06144 10.4939 7.1901 10.551 7.32866C10.6004 7.44578 10.6497 7.5629 10.6928 7.68497C10.8112 7.99195 10.9234 8.31989 11.0208 8.65649C11.045 8.73182 11.0644 8.80471 11.084 8.87859C11.0924 8.90991 11.1007 8.9414 11.1095 8.97334L11.1231 9.03249C11.1626 9.18909 11.1971 9.34442 11.2217 9.501C11.2415 9.60826 11.26 9.71059 11.2698 9.81415C11.2846 9.93127 11.2994 10.0484 11.3044 10.1655C11.3142 10.2728 11.3191 10.385 11.3191 10.4922C11.3191 10.7659 11.2945 11.0298 11.2365 11.2788C11.2329 11.2922 11.2293 11.3058 11.2256 11.3194C11.2094 11.38 11.1926 11.4428 11.1724 11.5032C11.1542 11.5679 11.1306 11.6325 11.1061 11.6997C11.0974 11.7234 11.0887 11.7475 11.08 11.772C11.0783 11.7763 11.0767 11.7807 11.0751 11.7851C11.0569 11.8339 11.0385 11.8836 11.0158 11.9323C10.8938 12.2257 10.7422 12.5179 10.5856 12.7916C10.3563 13.1972 10.1257 13.5535 9.96419 13.7828C9.95431 13.7977 9.94468 13.8118 9.93539 13.8253C9.92383 13.8422 9.91281 13.8583 9.90256 13.8741C9.85202 13.9456 9.90378 14.0467 9.99131 14.0467H11.6976V15.3942H9.97158C9.50802 15.3942 9.07898 15.1316 8.87186 14.7112C8.7646 14.5004 8.72267 14.2686 8.74734 14.0417C8.75349 13.9739 8.70294 13.9098 8.63392 13.9098H5.14729C5.08811 13.9098 5.04004 13.9579 5.04004 14.0171V14.0886C5.04004 16.3127 6.83637 18.1152 9.05308 18.1152H15.3075C16.4799 18.1152 17.1456 17.0468 17.8 15.9968C17.9824 15.704 18.1639 15.4127 18.3552 15.1464C18.6992 14.668 19.5265 14.2883 19.7681 14.1847C19.8076 14.1675 19.8347 14.128 19.8347 14.0837Z" fill="white"/>
<path d="M5.97211 12.3218L5.92034 12.4032C5.87472 12.4735 5.92526 12.5672 6.01157 12.5672H9.222C9.25776 12.5672 9.29105 12.5499 9.31077 12.5203C9.3527 12.4562 9.39216 12.3897 9.42789 12.3218C9.70531 11.8558 9.95189 11.3516 10.0419 10.9792C10.2527 10.0743 9.8027 8.62071 9.28118 7.45193C9.24667 7.37427 9.13941 7.36687 9.09379 7.43837L5.97211 12.3218Z" fill="white"/>
</svg>
