<svg width="320" height="480" viewBox="0 0 320 480" fill="none" xmlns="http://www.w3.org/2000/svg">
<rect x="0.5" y="0.5" width="319" height="479" rx="15.5" fill="#F3F4F6"/>
<g opacity="0.4">
<path d="M125.756 264.457C123.743 263.479 121.528 262.893 119.314 262.893C117.1 262.893 114.886 263.284 112.873 264.457C112.47 264.652 112.068 264.848 111.665 265.239C110.659 266.021 110.256 266.999 110.055 268.172V268.367C110.055 268.759 110.055 268.954 110.256 269.345C110.457 270.127 111.061 270.714 111.665 271.105C112.068 271.3 112.47 271.692 112.873 271.887C114.886 272.865 117.1 273.451 119.314 273.451C124.347 273.451 128.373 271.3 128.373 268.563C128.373 268.563 128.373 268.563 128.373 268.367C128.373 267.194 127.769 266.217 126.762 265.434C126.36 264.848 126.158 264.652 125.756 264.457Z" fill="#E0E0E0"/>
<path d="M201.843 167.474C206.271 167.474 209.693 163.955 209.693 159.848C209.693 155.742 206.07 152.223 201.843 152.223C197.414 152.223 193.992 155.742 193.992 159.848C193.992 163.955 197.615 167.474 201.843 167.474ZM200.836 153.591C204.46 153.005 207.68 155.351 208.284 158.871C208.888 162.39 206.472 165.519 202.849 166.105C199.226 166.692 196.005 164.346 195.401 160.826C194.797 157.502 197.414 154.178 200.836 153.591Z" fill="#E8E8E8"/>
<path d="M202.853 166.3C206.476 165.714 208.892 162.585 208.288 159.065C207.684 155.546 204.463 153.2 200.84 153.786C197.217 154.373 194.801 157.501 195.405 161.021C196.009 164.345 199.23 166.887 202.853 166.3Z" fill="#E0E0E0"/>
<path d="M108.042 217.53C114.282 206.189 123.743 196.804 135.217 190.547C135.62 190.351 135.821 190.155 136.223 189.96L130.386 191.72H130.185L122.334 195.239L114.685 199.737L109.854 203.256L109.653 203.452L105.224 207.362L98.7826 214.597L94.3542 220.854L93.549 222.223C90.127 228.284 87.9127 235.128 86.9062 241.971L107.64 217.139L108.042 217.53Z" fill="#D8D8D8"/>
<path d="M108.039 217.531L120.519 227.307L130.987 217.14L159.973 229.849L188.758 217.14L192.784 222.223L199.226 230.045L212.31 217.335L232.842 242.754C232.842 242.754 232.842 242.754 232.842 242.559L231.634 235.911L228.413 226.721L220.965 214.598L211.505 204.821L201.641 197.978L187.148 191.329C185.739 190.743 184.129 190.352 182.719 189.961C175.272 187.81 167.622 186.637 159.772 186.637C157.356 186.637 154.941 186.832 152.525 187.028L140.246 188.983L136.019 190.352C135.616 190.547 135.415 190.743 135.013 190.938C123.74 196.804 114.48 206.19 108.039 217.531Z" fill="#D8D8D8"/>
<path d="M116.698 167.474C121.127 167.474 124.549 164.15 124.549 159.848C124.549 155.547 121.127 152.223 116.698 152.223C112.672 152.223 109.25 155.156 108.848 159.066C108.848 159.262 108.848 159.653 108.848 160.044C108.848 164.15 112.27 167.474 116.698 167.474ZM110.458 158.089C111.263 155.742 113.276 153.982 115.692 153.787C116.899 153.591 118.107 153.787 119.114 154.178C122.536 155.547 124.146 159.262 122.737 162.586C121.328 165.91 117.503 167.474 114.081 166.105C111.062 164.541 109.25 161.217 110.458 158.089Z" fill="#E8E8E8"/>
<path d="M117.705 166.299C121.328 165.712 123.744 162.584 123.14 159.064C122.737 156.913 121.328 154.958 119.114 154.176C118.107 153.589 116.9 153.589 115.692 153.785C112.069 154.372 109.854 157.696 110.458 161.215C111.062 164.344 114.283 166.69 117.705 166.299Z" fill="#E0E0E0"/>
<path d="M82.2754 191.33C83.4832 188.788 84.6909 186.246 86.1 183.899C84.2883 185.855 82.678 188.006 81.0676 189.961C51.8799 229.067 58.7239 283.425 96.7686 314.515C81.4702 298.09 71.6068 271.693 71.6068 241.972C71.4055 224.57 75.0288 207.168 82.2754 191.33Z" fill="#D8D8D8"/>
<path d="M216.135 168.255C220.363 159.261 216.135 148.702 206.876 144.596C197.616 140.49 186.746 144.596 182.519 153.591C169.435 150.658 156.149 150.267 142.864 152.417L141.858 152.613C139.442 153.004 137.228 153.591 135.013 154.177C134.611 153.395 134.208 152.613 133.604 151.831C130.182 146.551 124.345 143.423 118.105 143.423C116.897 143.423 115.689 143.618 114.481 143.814C108.241 146.943 104.215 153.395 104.014 160.239V160.434C104.014 163.563 104.819 166.496 106.43 169.038C106.027 169.038 105.624 168.842 105.222 168.842C104.014 168.842 103.008 169.038 102.001 169.429C100.793 170.211 99.7869 171.188 98.5791 171.971C94.1506 175.49 89.9234 179.401 86.0988 183.702C84.8911 186.049 83.6833 188.591 82.2742 191.133C75.0276 207.166 71.4043 224.373 71.6056 241.775C71.6056 271.692 81.4691 298.089 96.7675 314.513C105.624 321.943 115.89 327.614 126.962 331.524C137.63 335.24 148.702 336.999 159.974 336.999C213.518 336.999 256.998 295.351 256.998 243.926C256.998 213.814 241.7 185.462 216.135 168.255ZM201.843 152.222C206.272 152.222 209.694 155.741 209.694 159.848C209.694 164.149 206.071 167.473 201.843 167.473C197.616 167.473 193.993 163.954 193.993 159.848C193.993 155.741 197.616 152.222 201.843 152.222ZM147.695 166.496H172.253C176.48 166.496 179.902 169.82 179.902 173.926C179.902 178.032 176.48 181.356 172.253 181.356H147.695C143.468 181.356 140.046 178.032 140.046 173.926C139.845 169.82 143.468 166.496 147.695 166.496ZM108.845 159.065C109.248 155.155 112.67 152.222 116.696 152.222C121.124 152.222 124.546 155.741 124.546 159.848C124.546 163.954 120.923 167.473 116.696 167.473C112.267 167.473 108.845 163.954 108.845 159.848C108.845 159.652 108.845 159.261 108.845 159.065ZM227.609 273.452C218.148 292.418 197.616 306.496 173.058 310.407C168.831 310.994 164.403 311.385 160.175 311.385C153.13 311.385 146.286 310.603 139.442 308.843C116.494 303.172 98.1765 288.312 90.5273 269.345C87.9105 262.893 86.7027 256.049 86.5014 249.206C86.5014 248.032 86.5014 246.859 86.7027 245.686C86.7027 244.513 86.904 243.34 87.1053 242.166C87.9105 235.323 90.1247 228.675 93.5467 222.418L94.3519 221.049L98.7804 214.596L105.222 207.362L109.65 203.451L109.852 203.256L114.683 199.736L122.332 195.239L130.182 191.719H130.384L136.221 189.959L140.65 188.786L152.929 186.831C155.344 186.635 157.76 186.44 160.175 186.44C168.026 186.44 175.675 187.418 183.324 189.568C184.733 189.959 186.344 190.351 187.753 190.937L202.246 197.585L212.109 204.429L221.57 214.205L229.018 226.328L232.44 235.518L233.648 242.166C233.648 242.166 233.648 242.166 233.648 242.362C233.849 244.513 234.051 246.664 234.051 248.815C234.051 249.988 234.051 251.161 234.051 252.139C232.843 259.569 231.031 266.803 227.609 273.452Z" fill="#E0E0E0"/>
<path d="M106.229 169.038C104.618 166.496 103.813 163.368 103.813 160.435V160.239C103.813 153.396 107.839 147.138 114.28 143.814C107.034 145.183 101.398 150.658 99.9885 157.697C99.7872 158.87 99.5859 160.044 99.5859 161.217C99.5859 162.781 99.7872 164.15 100.19 165.714C100.592 167.083 100.995 168.451 101.8 169.625C102.807 169.234 104.014 169.038 105.021 169.038C105.423 169.038 105.826 169.038 106.229 169.038Z" fill="#D8D8D8"/>
<path d="M100.192 248.618C100.192 237.668 103.01 227.109 108.244 217.528L107.64 216.941L87.1078 241.969C86.9065 243.143 86.9065 244.316 86.7052 245.489C86.7052 246.662 86.5039 247.64 86.5039 248.813C86.5039 255.852 87.913 262.696 90.5298 269.148C98.179 288.115 116.497 302.975 139.243 308.646C115.49 297.696 100.192 274.232 100.192 248.618Z" fill="#E0E0E0"/>
<path d="M233.449 248.813C233.449 246.662 233.247 244.511 233.046 242.361L212.514 216.941L199.228 229.846L192.787 222.025L188.761 216.941L159.976 229.846L131.191 217.137L120.723 227.305L108.243 217.528C103.01 227.109 100.191 237.863 100.191 248.618C100.191 274.428 115.49 297.696 139.444 308.841C146.288 310.601 153.132 311.383 160.177 311.383C164.606 311.383 168.833 310.992 173.06 310.406C197.618 306.69 218.15 292.417 227.611 273.45C231.033 266.802 232.845 259.763 233.449 252.333C233.449 251.159 233.449 249.986 233.449 248.813ZM128.574 267.975C128.373 270.908 124.347 273.059 119.516 273.059C117.301 273.059 115.087 272.668 113.074 271.495C112.672 271.299 112.269 271.104 111.867 270.713C111.263 270.322 110.659 269.539 110.457 268.953C110.256 268.562 110.256 268.366 110.256 267.975V267.78C110.256 266.606 110.86 265.629 111.665 265.042C112.068 264.847 112.47 264.456 112.873 264.26C114.886 263.282 117.1 262.696 119.314 262.696C121.529 262.696 123.743 263.087 125.756 264.26C126.158 264.456 126.561 264.651 126.762 265.042C127.769 265.824 128.373 266.802 128.574 267.975ZM135.821 256.83L128.373 260.936L129.58 252.724L123.139 247.053L131.593 245.685L135.217 238.059L139.243 245.489L147.697 246.467L141.658 252.528L143.269 260.741L135.821 256.83ZM160.982 287.919C152.931 287.919 146.288 281.467 146.288 273.646H175.677C175.677 281.467 169.034 287.919 160.982 287.919ZM173.664 260.936L174.872 252.724L168.43 247.053L176.885 245.489L180.508 237.863L184.534 245.294L192.988 246.271L186.95 252.333L187.151 252.919L188.761 260.545L181.112 256.83L173.664 260.936ZM198.222 272.668C192.988 272.668 188.56 270.322 188.56 267.389C188.56 266.606 188.761 266.02 189.365 265.433C190.372 264.26 191.579 263.478 192.988 263.087C193.391 262.891 193.794 262.696 194.196 262.696C195.605 262.305 197.014 262.109 198.423 262.109C200.034 262.109 201.845 262.305 203.456 262.891C203.858 263.087 204.261 263.087 204.462 263.282C205.267 263.673 205.871 263.869 206.475 264.456C207.482 265.238 208.085 266.215 208.085 267.389C207.683 270.322 203.456 272.668 198.222 272.668Z" fill="#EFEFEF"/>
<path d="M204.262 263.479C203.859 263.283 203.658 263.088 203.255 263.088C201.645 262.501 200.034 262.306 198.223 262.306C196.814 262.306 195.405 262.501 193.996 262.892C193.593 262.892 193.19 263.088 192.788 263.283C191.379 263.674 190.171 264.457 189.165 265.63C188.762 266.216 188.359 266.803 188.359 267.585C188.561 270.518 192.788 272.864 198.022 272.864C203.255 272.864 207.482 270.518 207.684 267.585C207.684 266.412 207.08 265.239 206.073 264.652C205.671 264.065 204.866 263.674 204.262 263.479Z" fill="#E0E0E0"/>
<path d="M147.896 246.272L139.24 245.294L135.214 238.06L131.591 245.49L123.137 247.054L129.578 252.724L128.37 260.937L135.818 256.831L143.467 260.546L141.857 252.333L147.896 246.272Z" fill="#E0E0E0"/>
<path d="M187.351 252.92L187.15 252.138L193.189 246.272L184.533 245.294L180.507 237.864L176.884 245.49L168.43 247.054L174.871 252.529L173.663 260.937L181.111 256.831L188.962 260.35L187.351 252.92Z" fill="#E0E0E0"/>
<path d="M146.285 273.646C146.285 281.468 152.928 287.92 160.98 287.92C169.031 287.92 175.674 281.468 175.674 273.646H146.285Z" fill="#E0E0E0"/>
<path d="M147.696 181.552H172.254C176.481 181.552 179.903 178.228 179.903 174.122C179.903 170.015 176.481 166.691 172.254 166.691H147.696C143.469 166.691 140.047 170.015 140.047 174.122C139.846 178.228 143.469 181.552 147.696 181.552Z" fill="#D8D8D8"/>
</g>
<rect x="0.5" y="0.5" width="319" height="479" rx="15.5" stroke="#E2E8F0"/>
</svg>
