<svg width="18" height="16" viewBox="0 0 18 16" fill="none" xmlns="http://www.w3.org/2000/svg">
<path fill-rule="evenodd" clip-rule="evenodd" d="M4.66662 3.01117C5.65332 2.3519 6.81335 2 8 2V0C6.41772 0 4.87097 0.469177 3.55542 1.34824C2.23986 2.22729 1.21447 3.47672 0.609005 4.93854C0.00341386 6.40033 -0.154911 8.00888 0.153682 9.56073C0.462398 11.1126 1.22436 12.538 2.34314 13.6569C3.46191 14.7757 4.88745 15.5376 6.43933 15.8463C7.99108 16.155 9.59961 15.9966 11.0615 15.391C12.5233 14.7855 13.7727 13.7602 14.6517 12.4445C15.3912 11.3378 15.8407 10.0674 15.9647 8.75H17.0649L14.8999 5L12.7349 8.75H13.9529C13.8368 9.67093 13.5083 10.556 12.9888 11.3334C12.3296 12.3201 11.3925 13.0891 10.2961 13.5433C9.1997 13.9974 7.99328 14.1162 6.82946 13.8847C5.66552 13.6532 4.59643 13.0818 3.75732 12.2426C2.91821 11.4035 2.3468 10.3344 2.11523 9.17053C1.88378 8.00665 2.00256 6.80026 2.45666 5.70389C2.91088 4.60754 3.67993 3.67047 4.66662 3.01117Z" fill="#fff"/>
</svg>
