<svg width="40" height="40" viewBox="0 0 40 40" fill="none" xmlns="http://www.w3.org/2000/svg">
<circle cx="20" cy="20" r="20" fill="#2D00F7"/>
<path fill-rule="evenodd" clip-rule="evenodd" d="M19 11.5C17.3189 11.5 15.6755 11.9985 14.2777 12.9325C12.8798 13.8665 11.7904 15.194 11.147 16.7472C10.5037 18.3004 10.3354 20.0094 10.6633 21.6583C10.9913 23.3071 11.8009 24.8217 12.9896 26.0104C14.1783 27.1991 15.6929 28.0087 17.3417 28.3367C18.9906 28.6646 20.6996 28.4963 22.2528 27.853C23.806 27.2096 25.1335 26.1202 26.0675 24.7223C27.0015 23.3245 27.5 21.6811 27.5 20H29.5C29.5 22.0767 28.8842 24.1068 27.7304 25.8335C26.5767 27.5602 24.9368 28.906 23.0182 29.7007C21.0996 30.4955 18.9884 30.7034 16.9516 30.2982C14.9148 29.8931 13.0438 28.8931 11.5754 27.4246C10.1069 25.9562 9.1069 24.0852 8.70176 22.0484C8.29661 20.0116 8.50455 17.9004 9.29927 15.9818L10.2231 16.3645L9.29927 15.9818C10.094 14.0632 11.4398 12.4233 13.1665 11.2696C14.8932 10.1158 16.9233 9.5 19 9.5V11.5Z" fill="white"/>
<path fill-rule="evenodd" clip-rule="evenodd" d="M31.9848 21.5355L28.4492 18L24.9137 21.5355L26.1157 22.7376L28.4492 20.4041L30.7826 22.7376L28.4492 25.071L28.4492 25.0711L31.9848 21.5355Z" fill="white"/>
</svg>
