<svg width="24" height="24" viewBox="0 0 24 24" fill="none" xmlns="http://www.w3.org/2000/svg">
<path d="M7.15144 5.03524C7.27142 4.91525 7.40537 4.81979 7.56604 4.77586C7.72948 4.73118 7.89178 4.7476 8.05361 4.80029L8.05527 4.80084C8.32783 4.8917 8.53772 5.10367 8.60834 5.38376C8.68676 5.68871 8.58618 5.99162 8.37218 6.21355L8.37143 6.21432C7.94388 6.65392 7.50451 7.09327 7.06577 7.52601L6.43064 8.15515C6.41834 8.16746 6.40539 8.18134 6.38708 8.20102L6.38639 8.20176C6.36555 8.22416 6.33993 8.25171 6.30869 8.28309L5.70867 8.93402H20.2342C20.3869 8.93402 20.5231 8.94615 20.6357 8.98044C21.0201 9.09263 21.2848 9.48762 21.232 9.88306L21.2316 9.886C21.1995 10.1066 21.0977 10.2983 20.9298 10.4329C20.7636 10.566 20.552 10.628 20.3242 10.628H3.90622V10.64H3.65622C3.46937 10.64 3.29449 10.6015 3.14463 10.5111C2.99269 10.4195 2.88338 10.2847 2.81413 10.1218L2.81328 10.1198C2.74409 9.95289 2.7256 9.77909 2.76971 9.60601C2.81295 9.43638 2.91137 9.28737 3.04144 9.15724L7.15144 5.03524Z" fill="#03045E"/>
<path d="M3.66222 13.45H20.3377C20.3612 13.45 20.399 13.45 20.4371 13.4518C20.4677 13.4532 20.52 13.4564 20.5689 13.4689C20.7228 13.5027 20.8614 13.5632 20.9748 13.6674C21.0899 13.773 21.1602 13.9063 21.2052 14.0525C21.2504 14.1996 21.2658 14.3482 21.2305 14.4977C21.1953 14.6469 21.1154 14.7728 21.011 14.8846L21.0079 14.8878C20.6523 15.2555 20.291 15.6168 19.9243 15.9775L19.9235 15.9782L16.8541 19.0477C16.716 19.189 16.5762 19.2741 16.4336 19.3143C16.2913 19.3545 16.1679 19.3437 16.0776 19.3287C15.9186 19.3027 15.7726 19.2488 15.6515 19.1455C15.53 19.0418 15.4551 18.907 15.4065 18.7573L15.4059 18.7556C15.3577 18.6037 15.3396 18.4495 15.3762 18.2947C15.4129 18.1396 15.4983 18.0105 15.6108 17.8978C16.0491 17.4535 16.4879 17.0147 16.9254 16.5772L17.5614 15.9412C17.5743 15.9284 17.5877 15.9139 17.6063 15.8939L17.6072 15.893C17.6267 15.8719 17.6506 15.8462 17.6783 15.8184L18.2909 15.162H3.76422C3.59658 15.162 3.42268 15.1437 3.27762 15.085C2.93904 14.9586 2.72635 14.6031 2.75883 14.2464L2.75063 14.2218L2.76242 14.1583C2.81369 13.8823 2.95393 13.6928 3.14115 13.5802C3.31781 13.474 3.51319 13.45 3.66222 13.45Z" fill="#03045E"/>
</svg>
