<svg width="25" height="25" viewBox="0 0 25 25" fill="none" xmlns="http://www.w3.org/2000/svg">
<path d="M8.275 0.769051C8.575 0.769051 8.765 0.799026 8.995 0.858977C9.565 0.998862 10.065 0.87896 10.545 0.559223C10.855 0.349396 11.205 0.169543 11.565 0.0696255C12.215 -0.110227 12.825 0.0696255 13.355 0.479289C13.905 0.898944 14.485 1.00885 15.155 0.829002C16.175 0.569215 17.055 0.928919 17.615 1.86815C17.985 2.48764 18.475 2.82736 19.195 2.93727C20.275 3.09714 20.955 3.83653 21.095 4.92564C21.175 5.53513 21.475 5.98477 21.995 6.29451C23.025 6.914 23.385 7.79328 23.105 8.94234C22.955 9.53185 23.085 10.0514 23.445 10.531C23.755 10.9307 23.955 11.3703 23.995 11.8799C24.035 12.4495 23.845 12.959 23.505 13.4087C23.085 13.9482 22.965 14.5178 23.135 15.1872C23.385 16.1864 23.015 17.0956 22.135 17.6252C21.515 17.9949 21.185 18.4845 21.075 19.2039C20.905 20.283 20.175 20.9525 19.075 21.1023C18.475 21.1823 18.035 21.472 17.715 21.9916C17.065 23.0507 16.215 23.4005 15.005 23.1107C14.435 22.9708 13.925 23.0707 13.455 23.4204C13.365 23.4904 13.265 23.5603 13.165 23.6203C12.375 24.1299 11.585 24.1299 10.795 23.6003C10.435 23.3605 10.105 23.0707 9.655 23.0607C9.405 23.0607 9.135 23.0707 8.895 23.1307C7.795 23.3805 6.895 23.0208 6.315 22.0516C5.985 21.492 5.515 21.1823 4.875 21.1023C3.795 20.9625 3.045 20.2031 2.905 19.124C2.825 18.4945 2.525 18.0349 1.985 17.7151C0.975 17.1056 0.605 16.2363 0.895 15.0873C1.045 14.4778 0.935 13.9382 0.555 13.4386C-0.185 12.4495 -0.185 11.6101 0.555 10.621C0.925 10.1214 1.035 9.60179 0.895 8.99229C0.615 7.82325 0.965 6.96396 1.995 6.34447C2.535 6.01474 2.835 5.55512 2.915 4.93563C3.055 3.85651 3.805 3.09714 4.885 2.95725C5.525 2.87732 5.995 2.55758 6.325 1.99804C6.805 1.16872 7.435 0.789034 8.275 0.769051Z" fill="#DBFF00"/>
<path d="M8.275 0.769051C8.575 0.769051 8.765 0.799026 8.995 0.858977C9.565 0.998862 10.065 0.87896 10.545 0.559223C10.855 0.349396 11.205 0.169543 11.565 0.0696255C12.215 -0.110227 12.825 0.0696255 13.355 0.479289C13.905 0.898944 14.485 1.00885 15.155 0.829002C16.175 0.569215 17.055 0.928919 17.615 1.86815C17.985 2.48764 18.475 2.82736 19.195 2.93727C20.275 3.09714 20.955 3.83653 21.095 4.92564C21.175 5.53513 21.475 5.98477 21.995 6.29451C23.025 6.914 23.385 7.79328 23.105 8.94234C22.955 9.53185 23.085 10.0514 23.445 10.531C23.755 10.9307 23.955 11.3703 23.995 11.8799C24.035 12.4495 23.845 12.959 23.505 13.4087C23.085 13.9482 22.965 14.5178 23.135 15.1872C23.385 16.1864 23.015 17.0956 22.135 17.6252C21.515 17.9949 21.185 18.4845 21.075 19.2039C20.905 20.283 20.175 20.9525 19.075 21.1023C18.475 21.1823 18.035 21.472 17.715 21.9916C17.065 23.0507 16.215 23.4005 15.005 23.1107C14.435 22.9708 13.925 23.0707 13.455 23.4204C13.365 23.4904 13.265 23.5603 13.165 23.6203C12.375 24.1299 11.585 24.1299 10.795 23.6003C10.435 23.3605 10.105 23.0707 9.655 23.0607C9.405 23.0607 9.135 23.0707 8.895 23.1307C7.795 23.3805 6.895 23.0208 6.315 22.0516C5.985 21.492 5.515 21.1823 4.875 21.1023C3.795 20.9625 3.045 20.2031 2.905 19.124C2.825 18.4945 2.525 18.0349 1.985 17.7151C0.975 17.1056 0.605 16.2363 0.895 15.0873C1.045 14.4778 0.935 13.9382 0.555 13.4386C-0.185 12.4495 -0.185 11.6101 0.555 10.621C0.925 10.1214 1.035 9.60179 0.895 8.99229C0.615 7.82325 0.965 6.96396 1.995 6.34447C2.535 6.01474 2.835 5.55512 2.915 4.93563C3.055 3.85651 3.805 3.09714 4.885 2.95725C5.525 2.87732 5.995 2.55758 6.325 1.99804C6.805 1.16872 7.435 0.789034 8.275 0.769051Z" fill="url(#paint0_radial_47_131)"/>
<path d="M18.4063 8.72168L16.7837 7.09194C16.6611 6.96935 16.4448 6.96935 16.3222 7.09194L10.1783 13.2864L7.67598 10.7624C7.61108 10.6975 7.53176 10.6687 7.44522 10.6687C7.35869 10.6687 7.27936 10.7048 7.21446 10.7624L5.59194 12.3922C5.46935 12.5148 5.46935 12.7239 5.59194 12.8465L10.1783 17.4617L18.4063 9.17598C18.4639 9.11829 18.5 9.03176 18.5 8.94522C18.5 8.85869 18.4639 8.77936 18.4063 8.71446V8.72168Z" fill="#2D00F7"/>
<path d="M12.07 0.499999C12.4 0.499999 12.73 0.629999 13.05 0.879999C13.52 1.24 14.02 1.42 14.56 1.42C14.79 1.42 15.04 1.39 15.28 1.32C15.45 1.28 15.62 1.25 15.78 1.25C16.37 1.25 16.84 1.55 17.19 2.13C17.64 2.89 18.26 3.3 19.13 3.44C19.97 3.56 20.49 4.12 20.61 5C20.71 5.76 21.09 6.34 21.75 6.73C22.59 7.24 22.86 7.88 22.63 8.83C22.45 9.55 22.59 10.22 23.06 10.85C23.33 11.2 23.48 11.55 23.51 11.93C23.54 12.35 23.41 12.74 23.12 13.12C22.6 13.79 22.45 14.51 22.66 15.33C22.86 16.12 22.58 16.8 21.89 17.22C21.14 17.67 20.72 18.28 20.59 19.15C20.42 20.22 19.64 20.55 19.02 20.63C18.28 20.73 17.7 21.11 17.3 21.75C16.88 22.43 16.41 22.73 15.78 22.73C15.59 22.73 15.37 22.7 15.14 22.65C14.94 22.6 14.73 22.57 14.54 22.57C14.05 22.57 13.59 22.73 13.16 23.05C13.09 23.11 13 23.17 12.91 23.22C12.6 23.42 12.3 23.52 12.01 23.52C11.72 23.52 11.41 23.42 11.09 23.2L10.92 23.09C10.59 22.86 10.21 22.59 9.67 22.58C9.4 22.58 9.09 22.59 8.8 22.66C8.61001 22.7 8.43001 22.72 8.26 22.72C7.62001 22.72 7.13 22.42 6.76 21.81C6.35001 21.12 5.74 20.72 4.95 20.62C4.1 20.51 3.52 19.93 3.41001 19.07C3.31001 18.29 2.92 17.69 2.25 17.3C1.42 16.8 1.15 16.16 1.39 15.22C1.58 14.46 1.43 13.77 0.960005 13.15C0.360005 12.34 0.360005 11.74 0.960005 10.93C1.42 10.31 1.56 9.64 1.38 8.89C1.15 7.92 1.41 7.29 2.25 6.79C2.92 6.38 3.31001 5.79 3.41001 5.02C3.52 4.16 4.1 3.58 4.95 3.47C5.74 3.37 6.35001 2.97 6.76 2.27C7.14001 1.61 7.61 1.31 8.28 1.29C8.54 1.29 8.69001 1.32 8.88 1.37C9.08 1.42 9.27001 1.44 9.46 1.44C9.93001 1.44 10.38 1.3 10.83 0.999999C11.12 0.799999 11.43 0.659999 11.7 0.579999C11.82 0.549999 11.95 0.529999 12.07 0.529999V0.499999ZM12.07 0.0299988C11.91 0.0299988 11.74 0.0499988 11.57 0.0999988C11.21 0.199999 10.86 0.379999 10.55 0.589999C10.2 0.819999 9.85001 0.949999 9.46 0.949999C9.31001 0.949999 9.16 0.929999 9 0.889999C8.77001 0.829999 8.58 0.799999 8.28 0.799999C7.44 0.819999 6.81 1.2 6.33 2.03C6 2.59 5.53 2.91 4.89 2.99C3.81 3.13 3.06 3.89 2.92 4.97C2.84 5.59 2.54 6.05 2 6.38C0.970005 7 0.620005 7.86 0.900005 9.03C1.04 9.64 0.930005 10.16 0.560005 10.66C-0.179995 11.65 -0.179995 12.49 0.560005 13.48C0.940005 13.98 1.05 14.52 0.900005 15.13C0.610005 16.28 0.980005 17.15 1.99 17.76C2.53 18.08 2.83001 18.54 2.91001 19.17C3.05001 20.25 3.8 21.01 4.88 21.15C5.52 21.23 5.99001 21.54 6.32 22.1C6.78 22.87 7.44 23.26 8.25 23.26C8.46 23.26 8.67 23.23 8.9 23.18C9.14 23.12 9.41 23.11 9.66 23.11C10.11 23.11 10.44 23.41 10.8 23.65C11.2 23.92 11.6 24.05 12 24.05C12.4 24.05 12.78 23.92 13.17 23.67C13.27 23.61 13.37 23.54 13.46 23.47C13.79 23.22 14.15 23.1 14.53 23.1C14.69 23.1 14.85 23.12 15.01 23.16C15.28 23.22 15.53 23.26 15.77 23.26C16.59 23.26 17.22 22.87 17.72 22.04C18.04 21.52 18.48 21.23 19.08 21.15C20.18 21 20.91 20.33 21.08 19.25C21.19 18.53 21.52 18.04 22.14 17.67C23.02 17.14 23.39 16.23 23.14 15.23C22.97 14.56 23.09 13.99 23.51 13.45C23.85 13 24.04 12.49 24 11.92C23.96 11.41 23.76 10.97 23.45 10.57C23.09 10.09 22.96 9.57 23.11 8.98C23.39 7.83 23.03 6.95 22 6.33C21.48 6.02 21.18 5.57 21.1 4.96C20.96 3.87 20.28 3.13 19.2 2.97C18.48 2.86 17.99 2.52 17.62 1.9C17.18 1.16 16.54 0.779999 15.79 0.779999C15.59 0.779999 15.38 0.809999 15.16 0.859999C14.95 0.919999 14.76 0.939999 14.57 0.939999C14.14 0.939999 13.74 0.799999 13.36 0.509999C12.97 0.209999 12.53 0.0299988 12.07 0.0299988Z" fill="#2D00F7"/>
<defs>
<radialGradient id="paint0_radial_47_131" cx="0" cy="0" r="1" gradientUnits="userSpaceOnUse" gradientTransform="translate(4.5 3) rotate(53.1301) scale(22.5 22.5003)">
<stop offset="0.428121" stop-color="#DDFF00"/>
<stop offset="1" stop-color="#98DC00"/>
</radialGradient>
</defs>
</svg>
