<svg width="24" height="24" viewBox="0 0 24 24" fill="none" xmlns="http://www.w3.org/2000/svg">
<path fill-rule="evenodd" clip-rule="evenodd" d="M12 0C18.6281 0 24 5.37188 24 12C24 18.6281 18.6281 24 12 24C5.37188 24 0 18.6281 0 12C0 5.37188 5.37188 0 12 0Z" fill="url(#paint0_radial_342_272)"/>
<path d="M7.62659 9.26722C10.0407 6.90941 13.9594 6.90941 16.3735 9.26722L16.6641 9.55316C16.786 9.67035 16.786 9.86253 16.6641 9.97972L15.6703 10.95C15.6094 11.011 15.511 11.011 15.45 10.95L15.0516 10.561C13.3641 8.91566 10.636 8.91566 8.94846 10.561L8.5219 10.9782C8.46096 11.0391 8.36253 11.0391 8.30159 10.9782L7.30784 10.0078C7.18596 9.89066 7.18596 9.69847 7.30784 9.58128L7.62659 9.26722ZM18.4313 11.2735L19.3172 12.136C19.4391 12.2532 19.4391 12.4453 19.3172 12.5625L15.3282 16.4578C15.2063 16.575 15.0094 16.575 14.8922 16.4578L12.061 13.6922C12.0328 13.6641 11.9813 13.6641 11.9532 13.6922L9.1219 16.4578C9.00003 16.575 8.80315 16.575 8.68596 16.4578L4.68284 12.5625C4.56096 12.4453 4.56096 12.2532 4.68284 12.136L5.56877 11.2735C5.69065 11.1563 5.88753 11.1563 6.00471 11.2735L8.83596 14.0391C8.86409 14.0672 8.91565 14.0672 8.94377 14.0391L11.775 11.2735C11.8969 11.1563 12.0938 11.1563 12.211 11.2735L15.0422 14.0391C15.0703 14.0672 15.1219 14.0672 15.15 14.0391L17.9813 11.2735C18.1125 11.1563 18.3094 11.1563 18.4313 11.2735Z" fill="white"/>
<defs>
<radialGradient id="paint0_radial_342_272" cx="0" cy="0" r="1" gradientUnits="userSpaceOnUse" gradientTransform="translate(7.43866e-05 12.0004) scale(24)">
<stop stop-color="#5D9DF6"/>
<stop offset="1" stop-color="#006FFF"/>
</radialGradient>
</defs>
</svg>
