<svg width="24" height="24" viewBox="0 0 24 24" fill="none" xmlns="http://www.w3.org/2000/svg">
<g clip-path="url(#clip0_342_109)">
<path d="M20.8196 3.9H20.5046C15.3296 3.9 10.1546 3.9 4.97963 3.9C4.84463 3.9 4.69463 3.9 4.55963 3.945C4.19963 4.065 3.97463 4.44 4.01963 4.8C4.07963 5.175 4.39463 5.46 4.76963 5.49C4.85963 5.49 4.94963 5.49 5.03963 5.49C10.5296 5.49 16.0196 5.49 21.5096 5.49C22.6946 5.49 23.6546 6.195 23.9246 7.305C23.9846 7.515 23.9996 7.755 23.9996 7.965C23.9996 11.91 23.9996 15.855 23.9996 19.785C23.9996 21.24 22.9646 22.275 21.5096 22.275C15.1646 22.275 8.83463 22.275 2.48963 22.275C1.03463 22.275 -0.000366211 21.24 -0.000366211 19.785C0.0146338 15.06 0.0146338 10.29 0.0146338 5.535C0.0146338 3.27 1.78463 1.5 4.03463 1.5C8.80463 1.5 13.5746 1.5 18.3446 1.5C19.6196 1.5 20.5946 2.325 20.7896 3.585C20.8046 3.675 20.8046 3.78 20.8196 3.9ZM20.8196 13.905C20.8196 13.02 20.0996 12.3 19.2296 12.3C18.3596 12.3 17.6396 13.005 17.6246 13.875C17.6246 14.76 18.3296 15.495 19.2146 15.495C20.0996 15.495 20.8196 14.79 20.8346 13.905H20.8196Z" fill="#2D00F7"/>
</g>
<defs>
<clipPath id="clip0_342_109">
<rect width="24" height="24" fill="white"/>
</clipPath>
</defs>
</svg>
